<?xml version="1.0" encoding="utf-8"?>
<!-- Generator: Adobe Illustrator 16.0.0, SVG Export Plug-In . SVG Version: 6.00 Build 0)  -->
<!DOCTYPE svg PUBLIC "-//W3C//DTD SVG 1.1//EN" "http://www.w3.org/Graphics/SVG/1.1/DTD/svg11.dtd">
<svg version="1.1" id="Capa_1" xmlns="http://www.w3.org/2000/svg" xmlns:xlink="http://www.w3.org/1999/xlink" x="0px" y="0px"
	 width="331.5px" height="110.5px" viewBox="0 0 331.5 110.5" enable-background="new 0 0 331.5 110.5" xml:space="preserve">
<g>
	
		<radialGradient id="SVGID_1_" cx="-677.2402" cy="-1560.2988" r="451.7377" gradientTransform="matrix(0.9988 0 0 0.9938 0.4823 -10.2161)" gradientUnits="userSpaceOnUse">
		<stop  offset="0.1393" style="stop-color:#FFFFFF"/>
		<stop  offset="0.3144" style="stop-color:#F8F8F8"/>
		<stop  offset="0.397" style="stop-color:#F2F2F2"/>
		<stop  offset="0.591" style="stop-color:#F1F2F2"/>
		<stop  offset="0.6723" style="stop-color:#DFDFDF"/>
		<stop  offset="0.7473" style="stop-color:#D3D2D2"/>
		<stop  offset="1" style="stop-color:#9E9E9E"/>
	</radialGradient>
	<rect x="-1006.461" y="-1902.003" opacity="0.7" fill="url(#SVGID_1_)" width="677.098" height="677.099"/>
</g>
<ellipse fill="#B4B4B4" cx="-496.19" cy="-1567.013" rx="47.766" ry="5.162"/>
<path fill="#B4B4B4" d="M-586.151-1567.013c0,2.852-21.385,5.162-47.764,5.162c-26.385,0-47.768-2.311-47.768-5.162
	c0-2.854,21.383-5.16,47.768-5.16C-607.536-1572.173-586.151-1569.866-586.151-1567.013z"/>
<path fill="#B4B4B4" d="M-731.984-1567.013c0,2.852-21.387,5.162-47.764,5.162c-26.384,0-47.768-2.311-47.768-5.162
	c0-2.854,21.384-5.16,47.768-5.16C-753.372-1572.173-731.984-1569.866-731.984-1567.013z"/>
<path fill="#B4B4B4" d="M-869.71-1567.013c0,2.852-21.387,5.162-47.765,5.162c-26.384,0-47.768-2.311-47.768-5.162
	c0-2.854,21.384-5.16,47.768-5.16C-891.097-1572.173-869.71-1569.866-869.71-1567.013z"/>
<path fill="#B4B4B4" d="M-637.235-1445.579c0,4.408-33.082,7.98-73.882,7.98c-40.813,0-73.888-3.572-73.888-7.98
	c0-4.416,33.075-7.986,73.888-7.986C-670.317-1453.565-637.235-1449.995-637.235-1445.579z"/>
<path fill="#B4B4B4" d="M-511.308-1507.802c0,4.223-31.684,7.643-70.762,7.643c-39.086,0-70.768-3.42-70.768-7.643
	c0-4.229,31.682-7.65,70.768-7.65C-542.991-1515.452-511.308-1512.03-511.308-1507.802z"/>
<path fill="#B4B4B4" d="M-763.94-1507.802c0,4.223-31.684,7.643-70.762,7.643c-39.089,0-70.767-3.42-70.767-7.643
	c0-4.229,31.678-7.65,70.767-7.65C-795.624-1515.452-763.94-1512.03-763.94-1507.802z"/>
<g>
	<path fill="#603914" d="M-496.083-1712.627c10.348,0,18.768-8.418,18.768-18.767c0-10.35-8.42-18.767-18.768-18.767
		c-10.35,0-18.768,8.417-18.768,18.767C-514.851-1721.045-506.433-1712.627-496.083-1712.627z"/>
	<path fill="#603914" d="M-454.86-1653.972c0.105-0.34,0.127-0.704,0.059-1.074l-8.605-45.651c-0.691-4.271-4.32-7.368-8.633-7.368
		h-48.09c-4.311,0-7.941,3.101-8.621,7.312l-8.615,45.708c-0.068,0.37-0.047,0.734,0.059,1.074c-0.064,0.418-0.1,0.82-0.1,1.223
		c0,4.833,3.934,8.767,8.768,8.767c4.227,0,7.846-3.022,8.615-7.231l5.43-33.945l-0.016,25.879l0,0l-16.441,29.863h16.422
		l-0.035,52.58c0,4.836,3.934,8.762,8.768,8.762c4.836,0,8.77-3.93,8.77-8.762v-52.58h2.092v52.58c0,4.836,3.934,8.762,8.768,8.762
		c4.838,0,8.764-3.93,8.764-8.764l-0.033-52.578h12.59l-12.367-29.863h-0.242l-0.018-25.879l5.439,33.996
		c0.766,4.158,4.383,7.181,8.609,7.181c4.836,0,8.768-3.934,8.768-8.767C-454.761-1653.151-454.794-1653.558-454.86-1653.972z"/>
</g>
<g>
	<path fill="#603914" d="M-633.919-1712.409c10.41,0,18.879-8.466,18.879-18.876s-8.469-18.875-18.879-18.875
		c-10.408,0-18.875,8.466-18.875,18.875S-644.327-1712.409-633.919-1712.409z"/>
	<path fill="#603914" d="M-592.454-1653.413c0.105-0.34,0.129-0.707,0.057-1.08l-8.654-45.915c-0.695-4.297-4.344-7.412-8.68-7.412
		h-48.371c-4.338,0-7.99,3.118-8.672,7.354l-8.664,45.973c-0.072,0.373-0.049,0.74,0.057,1.08c-0.068,0.422-0.098,0.825-0.098,1.232
		c0,4.859,3.951,8.814,8.816,8.814c4.25,0,7.891-3.037,8.666-7.271l5.461-34.143l-0.07,108.951c0,4.865,3.955,8.814,8.818,8.814
		s8.82-3.955,8.82-8.814v-53.928h2.104v53.928c0,4.865,3.955,8.814,8.818,8.814s8.814-3.955,8.814-8.814l-0.068-108.951
		l5.467,34.193c0.773,4.184,4.414,7.221,8.662,7.221c4.863,0,8.818-3.955,8.818-8.814
		C-592.354-1652.588-592.386-1652.997-592.454-1653.413z"/>
</g>
<g>
	<path fill="#603914" d="M-779.752-1712.409c10.41,0,18.879-8.466,18.879-18.876s-8.469-18.875-18.879-18.875
		c-10.409,0-18.875,8.466-18.875,18.875S-790.161-1712.409-779.752-1712.409z"/>
	<path fill="#603914" d="M-738.288-1653.413c0.106-0.34,0.128-0.707,0.058-1.08l-8.655-45.915c-0.696-4.297-4.345-7.412-8.681-7.412
		h-48.372c-4.336,0-7.989,3.118-8.671,7.354l-8.666,45.973c-0.068,0.373-0.047,0.74,0.059,1.08
		c-0.067,0.422-0.098,0.825-0.098,1.232c0,4.859,3.954,8.814,8.816,8.814c4.25,0,7.892-3.037,8.667-7.271l5.459-34.143
		l-0.07,108.951c0,4.865,3.955,8.814,8.816,8.814c4.866,0,8.823-3.955,8.823-8.814v-53.928h2.104v53.928
		c0,4.865,3.955,8.814,8.818,8.814c4.865,0,8.815-3.955,8.815-8.814l-0.07-108.951l5.469,34.193c0.772,4.184,4.41,7.221,8.662,7.221
		c4.863,0,8.816-3.955,8.816-8.814C-738.19-1652.588-738.221-1652.997-738.288-1653.413z"/>
</g>
<g>
	<path fill="#603914" d="M-917.479-1712.409c10.413,0,18.88-8.466,18.88-18.876s-8.467-18.875-18.88-18.875
		c-10.407,0-18.873,8.466-18.873,18.875S-927.886-1712.409-917.479-1712.409z"/>
	<path fill="#603914" d="M-876.014-1653.413c0.106-0.34,0.129-0.707,0.058-1.08l-8.654-45.915c-0.696-4.297-4.345-7.412-8.68-7.412
		h-48.371c-4.337,0-7.99,3.118-8.673,7.354l-8.665,45.973c-0.071,0.373-0.049,0.74,0.057,1.08c-0.067,0.422-0.098,0.825-0.098,1.232
		c0,4.859,3.953,8.814,8.816,8.814c4.25,0,7.892-3.037,8.667-7.271l5.461-34.143l-0.07,108.951c0,4.865,3.956,8.814,8.816,8.814
		c4.865,0,8.82-3.955,8.82-8.814v-53.928h2.105v53.928c0,4.865,3.955,8.814,8.818,8.814c4.864,0,8.814-3.955,8.814-8.814
		l-0.068-108.951l5.467,34.193c0.773,4.184,4.412,7.221,8.662,7.221c4.863,0,8.817-3.955,8.817-8.814
		C-875.915-1652.588-875.946-1652.997-876.014-1653.413z"/>
</g>
<g>
	<path fill="#746458" d="M-582.073-1723.206c15.422,0,27.967-12.543,27.967-27.964c0-15.422-12.545-27.964-27.967-27.964
		s-27.963,12.542-27.963,27.964C-610.036-1735.75-597.495-1723.206-582.073-1723.206z"/>
	<path fill="#746458" d="M-520.647-1635.803c0.16-0.506,0.191-1.05,0.088-1.601l-12.822-68.025
		c-1.031-6.365-6.438-10.981-12.863-10.981h-71.66c-6.424,0-11.834,4.621-12.846,10.896l-12.838,68.109
		c-0.104,0.551-0.07,1.095,0.088,1.601c-0.102,0.623-0.146,1.221-0.146,1.821c0,7.202,5.857,13.063,13.061,13.063
		c6.297,0,11.693-4.502,12.842-10.775l8.09-50.581l-0.105,161.411c0,7.205,5.859,13.057,13.061,13.057
		c7.211,0,13.072-5.859,13.072-13.057v-79.896h3.115v79.896c0,7.205,5.861,13.057,13.064,13.057c7.207,0,13.061-5.859,13.061-13.059
		l-0.105-161.409l8.104,50.657c1.141,6.197,6.531,10.699,12.83,10.699c7.207,0,13.064-5.86,13.064-13.063
		C-520.501-1634.582-520.548-1635.187-520.647-1635.803z"/>
</g>
<g>
	<ellipse opacity="0.33" fill="#CDCCCC" cx="-496.19" cy="-1567.013" rx="47.766" ry="5.162"/>
	<path opacity="0.33" fill="#CDCCCC" d="M-586.151-1567.013c0,2.852-21.385,5.162-47.764,5.162c-26.385,0-47.768-2.311-47.768-5.162
		c0-2.854,21.383-5.16,47.768-5.16C-607.536-1572.173-586.151-1569.866-586.151-1567.013z"/>
	<path opacity="0.33" fill="#CDCCCC" d="M-731.984-1567.013c0,2.852-21.387,5.162-47.764,5.162c-26.384,0-47.768-2.311-47.768-5.162
		c0-2.854,21.384-5.16,47.768-5.16C-753.372-1572.173-731.984-1569.866-731.984-1567.013z"/>
	<path opacity="0.33" fill="#CDCCCC" d="M-869.71-1567.013c0,2.852-21.387,5.162-47.765,5.162c-26.384,0-47.768-2.311-47.768-5.162
		c0-2.854,21.384-5.16,47.768-5.16C-891.097-1572.173-869.71-1569.866-869.71-1567.013z"/>
	<path opacity="0.33" fill="#CDCCCC" d="M-637.235-1445.579c0,4.408-33.082,7.98-73.882,7.98c-40.813,0-73.888-3.572-73.888-7.98
		c0-4.416,33.075-7.986,73.888-7.986C-670.317-1453.565-637.235-1449.995-637.235-1445.579z"/>
	<path opacity="0.33" fill="#CDCCCC" d="M-511.308-1507.802c0,4.223-31.684,7.643-70.762,7.643c-39.086,0-70.768-3.42-70.768-7.643
		c0-4.229,31.682-7.65,70.768-7.65C-542.991-1515.452-511.308-1512.03-511.308-1507.802z"/>
	<path opacity="0.33" fill="#CDCCCC" d="M-763.94-1507.802c0,4.223-31.684,7.643-70.762,7.643c-39.089,0-70.767-3.42-70.767-7.643
		c0-4.229,31.678-7.65,70.767-7.65C-795.624-1515.452-763.94-1512.03-763.94-1507.802z"/>
</g>
<g>
	<path fill="#746458" d="M-834.706-1723.206c15.422,0,27.968-12.543,27.968-27.964c0-15.422-12.546-27.964-27.968-27.964
		c-15.421,0-27.962,12.542-27.962,27.964C-862.668-1735.75-850.127-1723.206-834.706-1723.206z"/>
	<path fill="#746458" d="M-773.279-1635.803c0.159-0.506,0.191-1.05,0.088-1.601l-12.822-68.025
		c-1.032-6.365-6.439-10.981-12.863-10.981h-71.659c-6.425,0-11.836,4.621-12.847,10.896l-12.838,68.109
		c-0.103,0.551-0.071,1.095,0.086,1.601c-0.099,0.623-0.147,1.221-0.147,1.821c0,7.202,5.858,13.063,13.064,13.063
		c6.296,0,11.69-4.502,12.838-10.775l8.092-50.581l-0.025,38.563l0,0l-24.498,44.5h24.469l-0.051,78.348
		c0,7.205,5.86,13.057,13.063,13.057c7.209,0,13.069-5.859,13.069-13.057v-78.348h3.116v78.348c0,7.205,5.861,13.057,13.066,13.057
		s13.059-5.859,13.059-13.059l-0.051-78.346h18.761l-18.428-44.5h-0.362l-0.025-38.563l8.104,50.657
		c1.143,6.197,6.533,10.699,12.83,10.699c7.206,0,13.063-5.86,13.063-13.063C-773.132-1634.582-773.179-1635.187-773.279-1635.803z"
		/>
</g>
<g>
	<g>
		<path fill="#4DA7C7" d="M-705.229-1739.916c21.073,0,38.216-17.141,38.216-38.214c0-21.072-17.143-38.211-38.216-38.211
			c-21.07,0-38.208,17.139-38.208,38.211C-743.437-1757.056-726.298-1739.916-705.229-1739.916z"/>
		<path fill="#4DA7C7" d="M-621.29-1620.485c0.217-0.69,0.26-1.433,0.117-2.186l-17.52-92.953
			c-1.408-8.698-8.799-15.004-17.576-15.004h-97.92c-8.78,0-16.172,6.312-17.553,14.888l-17.545,93.069
			c-0.14,0.753-0.096,1.495,0.12,2.186c-0.137,0.854-0.202,1.67-0.202,2.491c0,9.841,8.008,17.848,17.851,17.848
			c8.604,0,15.976-6.151,17.544-14.724l11.057-69.116l-0.143,220.562c0,9.844,8.006,17.842,17.848,17.842
			c9.851,0,17.858-8.006,17.858-17.842v-109.174h4.26v109.174c0,9.844,8.007,17.842,17.853,17.842s17.844-8.006,17.844-17.846
			l-0.141-220.558l11.072,69.22c1.561,8.469,8.926,14.62,17.531,14.62c9.846,0,17.854-8.007,17.854-17.848
			C-621.091-1618.815-621.153-1619.642-621.29-1620.485z"/>
	</g>
	<g>
		<g>
			<path fill="#4DA7C7" d="M-696.461-1832.174h-20.784c-2.085,0-3.78-1.696-3.78-3.781s1.695-3.78,3.78-3.78h20.784
				c2.085,0,3.781,1.696,3.781,3.78S-694.376-1832.174-696.461-1832.174z M-717.245-1838.004c-1.13,0-2.05,0.919-2.05,2.049
				s0.92,2.05,2.05,2.05h20.784c1.131,0,2.051-0.919,2.051-2.05s-0.92-2.049-2.051-2.049H-717.245z"/>
			<path fill="#4DA7C7" d="M-706.847-1817.374c-2.902,0-5.36-1.94-6.078-4.7c-3.731-0.542-6.564-3.742-6.564-7.56v-0.866h25.271
				v0.866c0,3.813-2.826,7.013-6.549,7.559C-701.483-1819.313-703.941-1817.374-706.847-1817.374z M-717.695-1828.768
				c0.405,2.727,2.693,4.87,5.54,5.034l0.701,0.041l0.104,0.694c0.341,2.257,2.234,3.895,4.503,3.895
				c2.271,0,4.165-1.638,4.504-3.894l0.105-0.694l0.699-0.042c2.84-0.167,5.122-2.31,5.526-5.034H-717.695z"/>
			<path fill="#4DA7C7" d="M-693.189-1841.469h-27.479v-9.956c-2.644-4.467-5.728-8.968-8.931-13.033
				c-4.053-5.141-6.194-11.314-6.194-17.853c0-15.959,12.984-28.943,28.944-28.943c15.958,0,28.94,12.984,28.94,28.943
				c0,6.542-2.143,12.717-6.197,17.857c-2.887,3.664-6.271,8.613-9.083,13.279V-1841.469z M-718.938-1843.2h24.017v-8.453
				l0.123-0.206c2.871-4.785,6.359-9.894,9.332-13.666c3.813-4.832,5.826-10.636,5.826-16.785c0-15.005-12.206-27.212-27.21-27.212
				c-15.006,0-27.214,12.207-27.214,27.212c0,6.146,2.014,11.948,5.823,16.781c3.299,4.186,6.474,8.829,9.183,13.429l0.12,0.203
				V-1843.2z"/>
		</g>
		
			<rect x="-729.159" y="-1858.971" transform="matrix(0.214 0.9768 -0.9768 0.214 -2376.0229 -763.1575)" fill="#4DA7C7" width="30.711" height="1.978"/>
		
			<rect x="-700.862" y="-1873.33" transform="matrix(0.9778 0.2096 -0.2096 0.9778 -404.9265 105.4573)" fill="#4DA7C7" width="1.731" height="31.344"/>
		<rect x="-711.563" y="-1823.695" fill="#4DA7C7" width="9.727" height="1.731"/>
		<polygon fill="#4DA7C7" points="-708.396,-1862.673 -710.128,-1869.309 -714.832,-1866.161 -715.52,-1867.189 -709.37,-1871.304 
			-708.134,-1866.564 -704.959,-1874.29 -702.343,-1866.823 -697.709,-1868.941 -697.195,-1867.817 -703.061,-1865.135 
			-705.051,-1870.813 		"/>
		<path fill="#4DA7C7" d="M-705.77-1917.289c-0.409,0-0.741-0.333-0.741-0.742v-12.858c0-0.409,0.332-0.742,0.741-0.742
			c0.41,0,0.742,0.333,0.742,0.742v12.858C-705.027-1917.621-705.359-1917.289-705.77-1917.289z"/>
		<path fill="#4DA7C7" d="M-686.065-1912.474c-0.131,0-0.264-0.035-0.385-0.108c-0.35-0.212-0.461-0.668-0.25-1.019l6.664-10.997
			c0.215-0.351,0.67-0.463,1.02-0.25c0.352,0.212,0.463,0.668,0.25,1.019l-6.664,10.997
			C-685.569-1912.602-685.815-1912.474-686.065-1912.474z"/>
		<path fill="#4DA7C7" d="M-673.821-1896.953c-0.268,0-0.527-0.145-0.658-0.399c-0.191-0.363-0.051-0.811,0.313-1l11.398-5.95
			c0.365-0.19,0.813-0.048,1.002,0.314c0.189,0.363,0.049,0.812-0.314,1.001l-11.398,5.95
			C-673.589-1896.98-673.706-1896.953-673.821-1896.953z"/>
		<path fill="#4DA7C7" d="M-657.284-1878.629c-0.016,0-0.031-0.001-0.047-0.002l-12.834-0.819c-0.408-0.026-0.719-0.379-0.691-0.788
			c0.025-0.409,0.377-0.716,0.787-0.693l12.832,0.819c0.408,0.026,0.719,0.378,0.693,0.788
			C-656.569-1878.931-656.896-1878.629-657.284-1878.629z"/>
		<path fill="#4DA7C7" d="M-665.472-1852.734c-0.146,0-0.293-0.043-0.422-0.133l-10.551-7.352c-0.336-0.234-0.418-0.696-0.184-1.032
			c0.234-0.336,0.697-0.419,1.033-0.185l10.549,7.352c0.336,0.234,0.418,0.696,0.184,1.032
			C-665.005-1852.845-665.237-1852.734-665.472-1852.734z"/>
		<path fill="#4DA7C7" d="M-727.343-1912.474c-0.251,0-0.496-0.127-0.636-0.357l-6.664-10.997c-0.213-0.35-0.101-0.806,0.25-1.019
			c0.351-0.213,0.807-0.101,1.019,0.25l6.664,10.997c0.213,0.35,0.102,0.807-0.249,1.019
			C-727.08-1912.509-727.212-1912.474-727.343-1912.474z"/>
		<path fill="#4DA7C7" d="M-739.586-1896.953c-0.116,0-0.233-0.027-0.342-0.084l-11.399-5.95c-0.363-0.189-0.504-0.638-0.314-1.001
			s0.638-0.503,1.001-0.314l11.398,5.95c0.363,0.19,0.504,0.638,0.314,1C-739.061-1897.098-739.319-1896.953-739.586-1896.953z"/>
		<path fill="#4DA7C7" d="M-756.125-1878.629c-0.388,0-0.714-0.302-0.739-0.695c-0.026-0.409,0.284-0.762,0.693-0.788l12.833-0.819
			c0.411-0.026,0.761,0.284,0.788,0.693c0.026,0.409-0.285,0.761-0.693,0.788l-12.833,0.819
			C-756.093-1878.63-756.108-1878.629-756.125-1878.629z"/>
		<path fill="#4DA7C7" d="M-747.938-1852.734c-0.234,0-0.465-0.111-0.609-0.318c-0.234-0.336-0.151-0.798,0.185-1.032l10.549-7.352
			c0.336-0.234,0.798-0.152,1.033,0.185c0.234,0.336,0.151,0.798-0.185,1.032l-10.55,7.352
			C-747.644-1852.778-747.792-1852.734-747.938-1852.734z"/>
	</g>
</g>
<g>
	<g>
		<path fill="#603914" d="M-493.007-1758.921h-6.461c-0.646,0-1.174-0.527-1.174-1.175c0-0.647,0.527-1.175,1.174-1.175h6.461
			c0.646,0,1.174,0.527,1.174,1.175C-491.833-1759.448-492.36-1758.921-493.007-1758.921z M-499.468-1760.733
			c-0.35,0-0.637,0.286-0.637,0.637c0,0.352,0.287,0.637,0.637,0.637h6.461c0.352,0,0.637-0.286,0.637-0.637
			c0-0.351-0.285-0.637-0.637-0.637H-499.468z"/>
		<path fill="#603914" d="M-496.235-1754.321c-0.902,0-1.666-0.603-1.889-1.46c-1.16-0.168-2.041-1.163-2.041-2.35v-0.269h7.855
			v0.269c0,1.185-0.879,2.179-2.037,2.349C-494.569-1754.924-495.333-1754.321-496.235-1754.321z M-499.606-1757.862
			c0.125,0.847,0.836,1.513,1.721,1.564l0.219,0.013l0.033,0.215c0.105,0.702,0.693,1.21,1.398,1.21s1.295-0.509,1.4-1.21
			l0.031-0.216l0.219-0.013c0.883-0.052,1.592-0.718,1.717-1.564H-499.606z"/>
		<path fill="#603914" d="M-491.991-1761.81h-8.539v-3.094c-0.822-1.388-1.781-2.787-2.775-4.05
			c-1.26-1.598-1.926-3.517-1.926-5.548c0-4.96,4.035-8.995,8.996-8.995c4.959,0,8.994,4.035,8.994,8.995
			c0,2.033-0.666,3.952-1.926,5.55c-0.898,1.139-1.951,2.677-2.824,4.126V-1761.81z M-499.993-1762.348h7.465v-2.627l0.037-0.064
			c0.893-1.487,1.977-3.075,2.9-4.247c1.186-1.501,1.811-3.305,1.811-5.216c0-4.663-3.793-8.457-8.455-8.457
			c-4.664,0-8.459,3.794-8.459,8.457c0,1.91,0.627,3.713,1.811,5.215c1.025,1.301,2.012,2.744,2.854,4.173l0.037,0.063V-1762.348z"
			/>
	</g>
	
		<rect x="-503.169" y="-1767.248" transform="matrix(0.2139 0.9769 -0.9769 0.2139 -2117.8789 -902.2091)" fill="#603914" width="9.544" height="0.614"/>
	
		<rect x="-494.375" y="-1771.711" transform="matrix(0.9777 0.2099 -0.2099 0.9777 -381.8698 64.353)" fill="#603914" width="0.537" height="9.741"/>
	<rect x="-497.7" y="-1756.286" fill="#603914" width="3.021" height="0.538"/>
	<polygon fill="#603914" points="-496.718,-1768.399 -497.255,-1770.461 -498.718,-1769.483 -498.931,-1769.803 -497.019,-1771.082 
		-496.636,-1769.608 -495.649,-1772.009 -494.835,-1769.689 -493.396,-1770.347 -493.235,-1769.998 -495.06,-1769.164 
		-495.677,-1770.929 	"/>
	<path fill="#603914" d="M-495.901-1785.373c-0.127,0-0.23-0.103-0.23-0.23v-3.996c0-0.127,0.104-0.23,0.23-0.23
		c0.129,0,0.232,0.104,0.232,0.23v3.996C-495.669-1785.476-495.772-1785.373-495.901-1785.373z"/>
	<path fill="#603914" d="M-489.776-1783.876c-0.041,0-0.082-0.011-0.119-0.034c-0.109-0.066-0.145-0.208-0.078-0.316l2.07-3.417
		c0.066-0.109,0.209-0.144,0.316-0.078c0.109,0.066,0.145,0.208,0.078,0.316l-2.07,3.417
		C-489.622-1783.916-489.698-1783.876-489.776-1783.876z"/>
	<path fill="#603914" d="M-485.972-1779.053c-0.084,0-0.164-0.045-0.205-0.124c-0.059-0.113-0.016-0.252,0.098-0.311l3.543-1.85
		c0.113-0.059,0.252-0.015,0.311,0.098s0.016,0.252-0.098,0.311l-3.543,1.849C-485.899-1779.061-485.937-1779.053-485.972-1779.053z
		"/>
	<path fill="#603914" d="M-480.833-1773.358c-0.004,0-0.01,0-0.014-0.001l-3.988-0.254c-0.127-0.008-0.225-0.118-0.215-0.245
		c0.008-0.127,0.117-0.223,0.244-0.215l3.988,0.254c0.127,0.008,0.223,0.118,0.215,0.245
		C-480.61-1773.452-480.712-1773.358-480.833-1773.358z"/>
	<path fill="#603914" d="M-483.376-1765.311c-0.047,0-0.092-0.014-0.133-0.042l-3.277-2.285c-0.105-0.073-0.131-0.216-0.059-0.321
		c0.074-0.104,0.217-0.13,0.322-0.058l3.277,2.285c0.105,0.073,0.131,0.216,0.059,0.321
		C-483.231-1765.345-483.304-1765.311-483.376-1765.311z"/>
	<path fill="#603914" d="M-502.604-1783.876c-0.078,0-0.154-0.04-0.197-0.111l-2.072-3.417c-0.066-0.109-0.031-0.25,0.078-0.316
		c0.109-0.066,0.25-0.031,0.316,0.078l2.07,3.417c0.066,0.108,0.033,0.25-0.076,0.316
		C-502.522-1783.887-502.563-1783.876-502.604-1783.876z"/>
	<path fill="#603914" d="M-506.409-1779.053c-0.037,0-0.072-0.008-0.107-0.026l-3.543-1.849c-0.113-0.059-0.156-0.198-0.098-0.311
		c0.059-0.113,0.199-0.157,0.313-0.098l3.541,1.85c0.113,0.059,0.158,0.198,0.098,0.311
		C-506.247-1779.098-506.327-1779.053-506.409-1779.053z"/>
	<path fill="#603914" d="M-511.55-1773.358c-0.121,0-0.223-0.094-0.23-0.216c-0.008-0.127,0.09-0.236,0.217-0.245l3.988-0.254
		c0.127-0.008,0.236,0.088,0.244,0.215c0.008,0.127-0.088,0.236-0.215,0.245l-3.988,0.254
		C-511.54-1773.358-511.544-1773.358-511.55-1773.358z"/>
	<path fill="#603914" d="M-509.005-1765.311c-0.072,0-0.145-0.035-0.189-0.099c-0.072-0.104-0.047-0.248,0.057-0.321l3.279-2.285
		c0.104-0.073,0.248-0.047,0.32,0.058c0.072,0.104,0.047,0.248-0.057,0.321l-3.279,2.285
		C-508.913-1765.324-508.96-1765.311-509.005-1765.311z"/>
</g>
<g>
	<g>
		<path fill="#603914" d="M-914.292-1757.05h-6.46c-0.647,0-1.174-0.527-1.174-1.175c0-0.647,0.526-1.175,1.174-1.175h6.46
			c0.647,0,1.175,0.527,1.175,1.175C-913.117-1757.577-913.644-1757.05-914.292-1757.05z M-920.751-1758.862
			c-0.351,0-0.637,0.286-0.637,0.637c0,0.352,0.286,0.637,0.637,0.637h6.46c0.352,0,0.637-0.286,0.637-0.637
			c0-0.351-0.285-0.637-0.637-0.637H-920.751z"/>
		<path fill="#603914" d="M-917.519-1752.45c-0.902,0-1.666-0.603-1.89-1.46c-1.159-0.168-2.04-1.163-2.04-2.35v-0.269h7.854v0.269
			c0,1.185-0.879,2.179-2.036,2.349C-915.853-1753.053-916.617-1752.45-917.519-1752.45z M-920.891-1755.991
			c0.126,0.847,0.837,1.513,1.722,1.564l0.218,0.013l0.033,0.215c0.105,0.702,0.694,1.21,1.399,1.21s1.294-0.509,1.399-1.21
			l0.032-0.216l0.218-0.013c0.883-0.052,1.592-0.718,1.718-1.564H-920.891z"/>
		<path fill="#603914" d="M-913.275-1759.938h-8.54v-3.094c-0.821-1.388-1.78-2.787-2.775-4.05c-1.26-1.598-1.925-3.517-1.925-5.548
			c0-4.96,4.035-8.995,8.995-8.995c4.959,0,8.994,4.035,8.994,8.995c0,2.033-0.666,3.952-1.926,5.55
			c-0.897,1.139-1.95,2.677-2.823,4.126V-1759.938z M-921.277-1760.477h7.464v-2.627l0.038-0.064c0.893-1.487,1.977-3.075,2.9-4.247
			c1.185-1.501,1.811-3.305,1.811-5.216c0-4.663-3.794-8.457-8.456-8.457c-4.664,0-8.458,3.794-8.458,8.457
			c0,1.91,0.626,3.713,1.811,5.215c1.024,1.301,2.012,2.744,2.854,4.173l0.037,0.063V-1760.477z"/>
	</g>
	
		<rect x="-924.453" y="-1765.378" transform="matrix(0.214 0.9768 -0.9768 0.214 -2447.1145 -489.0476)" fill="#603914" width="9.544" height="0.615"/>
	
		<rect x="-915.659" y="-1769.84" transform="matrix(0.9777 0.2099 -0.2099 0.9777 -390.8622 152.8228)" fill="#603914" width="0.537" height="9.741"/>
	<rect x="-918.985" y="-1754.415" fill="#603914" width="3.022" height="0.538"/>
	<polygon fill="#603914" points="-918.001,-1766.528 -918.54,-1768.59 -920.001,-1767.612 -920.214,-1767.932 -918.303,-1769.21 
		-917.919,-1767.737 -916.933,-1770.138 -916.12,-1767.818 -914.679,-1768.476 -914.52,-1768.127 -916.343,-1767.293 
		-916.961,-1769.058 	"/>
	<path fill="#603914" d="M-917.185-1783.501c-0.127,0-0.23-0.103-0.23-0.23v-3.996c0-0.127,0.104-0.23,0.23-0.23
		c0.128,0,0.231,0.104,0.231,0.23v3.996C-916.954-1783.604-917.057-1783.501-917.185-1783.501z"/>
	<path fill="#603914" d="M-911.061-1782.005c-0.041,0-0.082-0.011-0.119-0.034c-0.109-0.066-0.144-0.208-0.078-0.316l2.071-3.417
		c0.066-0.109,0.208-0.144,0.316-0.078c0.109,0.066,0.145,0.208,0.078,0.316l-2.071,3.417
		C-910.907-1782.044-910.983-1782.005-911.061-1782.005z"/>
	<path fill="#603914" d="M-907.256-1777.182c-0.083,0-0.163-0.045-0.204-0.124c-0.06-0.113-0.016-0.252,0.098-0.311l3.542-1.85
		c0.113-0.059,0.252-0.015,0.312,0.098c0.059,0.113,0.015,0.252-0.098,0.311l-3.543,1.849
		C-907.184-1777.19-907.22-1777.182-907.256-1777.182z"/>
	<path fill="#603914" d="M-902.117-1771.487c-0.005,0-0.01,0-0.015-0.001l-3.988-0.254c-0.127-0.008-0.224-0.118-0.215-0.245
		c0.008-0.127,0.117-0.223,0.244-0.215l3.988,0.254c0.127,0.008,0.224,0.118,0.216,0.245
		C-901.894-1771.581-901.996-1771.487-902.117-1771.487z"/>
	<path fill="#603914" d="M-904.661-1763.439c-0.046,0-0.092-0.014-0.132-0.042l-3.278-2.285c-0.104-0.073-0.13-0.216-0.058-0.321
		c0.073-0.104,0.217-0.13,0.321-0.058l3.278,2.285c0.104,0.073,0.13,0.216,0.058,0.321
		C-904.516-1763.474-904.588-1763.439-904.661-1763.439z"/>
	<path fill="#603914" d="M-923.889-1782.005c-0.078,0-0.154-0.04-0.197-0.111l-2.071-3.417c-0.066-0.109-0.031-0.25,0.078-0.316
		c0.108-0.066,0.25-0.031,0.316,0.078l2.07,3.417c0.066,0.108,0.032,0.25-0.077,0.316
		C-923.807-1782.016-923.848-1782.005-923.889-1782.005z"/>
	<path fill="#603914" d="M-927.694-1777.182c-0.036,0-0.072-0.008-0.106-0.026l-3.543-1.849c-0.113-0.059-0.156-0.198-0.098-0.311
		c0.059-0.113,0.198-0.157,0.312-0.098l3.542,1.85c0.113,0.059,0.157,0.198,0.098,0.311
		C-927.531-1777.227-927.611-1777.182-927.694-1777.182z"/>
	<path fill="#603914" d="M-932.833-1771.487c-0.121,0-0.223-0.094-0.23-0.216c-0.008-0.127,0.089-0.236,0.216-0.245l3.988-0.254
		c0.127-0.008,0.236,0.088,0.244,0.215c0.008,0.127-0.088,0.236-0.215,0.245l-3.988,0.254
		C-932.824-1771.487-932.829-1771.487-932.833-1771.487z"/>
	<path fill="#603914" d="M-930.29-1763.439c-0.072,0-0.145-0.035-0.189-0.099c-0.072-0.104-0.047-0.248,0.058-0.321l3.278-2.285
		c0.104-0.073,0.248-0.047,0.321,0.058c0.072,0.104,0.047,0.248-0.058,0.321l-3.278,2.285
		C-930.198-1763.453-930.244-1763.439-930.29-1763.439z"/>
</g>
<g>
	<path fill="#746458" d="M-838.119-1784.792c-0.48,0-0.942,0.197-1.3,0.554c-0.542,0.542-0.7,1.311-0.413,2.006
		c0.303,0.732,1.022,1.225,1.789,1.225c0.48,0,0.942-0.197,1.3-0.555c0.542-0.542,0.699-1.311,0.411-2.006
		C-836.635-1784.301-837.353-1784.792-838.119-1784.792z"/>
	<path fill="#746458" d="M-836.864-1817.154c-2.295,0-4.317,0.732-6.011,2.177c-1.691,1.442-2.801,3.259-3.299,5.4l-0.228,0.98
		l3.359,0.759l0.216-0.983c0.631-2.88,3.083-4.891,5.962-4.891c1.698,0,3.158,0.599,4.34,1.78c1.181,1.181,1.779,2.641,1.779,4.339
		c0,1.564-0.49,2.803-1.597,4.025c-0.55,0.623-1.129,1.264-1.635,1.724c-0.52,0.472-1.386,1.18-2.157,1.804
		c-1.351,1.071-2.326,1.957-2.943,2.53c-1.207,1.123-3.248,3.802-3.248,6.725c0,1.603,0.512,2.981,1.521,4.096l0.616,0.681
		l2.662-2.024l-0.621-0.798c-0.495-0.637-0.736-1.276-0.736-1.955c0-0.78,0.256-1.609,0.751-2.447
		c0.543-0.876,1.086-1.589,1.586-2.09c0.644-0.595,1.581-1.375,2.641-2.2c1.095-0.857,1.859-1.489,2.433-2.018
		c0.482-0.482,1.143-1.142,1.888-1.98c1.535-1.726,2.28-3.711,2.28-6.072c0-2.667-0.932-4.951-2.771-6.79
		S-834.197-1817.154-836.864-1817.154z"/>
	<path fill="#746458" d="M-576.101-1819.805c-1.84-1.839-4.123-2.771-6.791-2.771c-2.295,0-4.316,0.732-6.01,2.177
		c-1.691,1.442-2.801,3.259-3.299,5.4l-0.229,0.98l3.361,0.758l0.215-0.983c0.631-2.88,3.082-4.891,5.961-4.891
		c1.699,0,3.16,0.599,4.34,1.78c1.182,1.182,1.781,2.642,1.781,4.339c0,1.564-0.49,2.803-1.598,4.025
		c-0.551,0.624-1.131,1.264-1.637,1.724c-0.504,0.459-1.338,1.141-2.154,1.803c-1.359,1.077-2.332,1.959-2.943,2.53
		c-1.617,1.504-3.25,4.167-3.25,6.725c0,1.602,0.512,2.98,1.52,4.095l0.617,0.681l2.662-2.024l-0.621-0.798
		c-0.494-0.637-0.734-1.276-0.734-1.955c0-0.78,0.256-1.609,0.752-2.447c0.543-0.878,1.086-1.59,1.584-2.09
		c0.648-0.598,1.586-1.378,2.643-2.2c1.088-0.852,1.852-1.484,2.443-2.029c0.51-0.509,1.141-1.142,1.877-1.97
		c1.535-1.726,2.281-3.712,2.281-6.071C-573.329-1815.681-574.263-1817.965-576.101-1819.805z"/>
	<path fill="#746458" d="M-584.146-1790.214c-0.48,0-0.941,0.197-1.299,0.554c-0.543,0.542-0.701,1.311-0.412,2.006
		c0.303,0.732,1.021,1.225,1.787,1.225c0.48,0,0.941-0.197,1.299-0.554c0.543-0.542,0.701-1.311,0.412-2.006
		C-582.661-1789.722-583.38-1790.214-584.146-1790.214z"/>
	<path fill="#603914" d="M-781.138-1755.286c-0.266,0.267-0.343,0.644-0.202,0.984c0.149,0.359,0.501,0.601,0.877,0.601
		c0.235,0,0.462-0.096,0.638-0.272c0.266-0.266,0.343-0.644,0.202-0.985C-779.865-1755.542-780.683-1755.739-781.138-1755.286z"/>
	<path fill="#603914" d="M-779.884-1771.438c-1.126,0-2.119,0.36-2.949,1.068c-0.83,0.707-1.375,1.599-1.619,2.65l-0.112,0.481
		l1.649,0.371l0.106-0.482c0.31-1.413,1.512-2.399,2.925-2.399c0.834,0,1.55,0.293,2.129,0.873c0.58,0.58,0.874,1.297,0.874,2.13
		c0,0.767-0.24,1.375-0.784,1.975c-0.314,0.356-0.571,0.636-0.803,0.846c-0.238,0.217-0.606,0.52-1.057,0.885
		c-0.672,0.533-1.146,0.964-1.444,1.242c-0.592,0.551-1.594,1.865-1.594,3.3c0,0.786,0.251,1.462,0.746,2.01l0.303,0.334
		l1.306-0.995l-0.305-0.391c-0.243-0.312-0.361-0.625-0.361-0.958c0-0.383,0.126-0.79,0.369-1.201
		c0.267-0.432,0.533-0.781,0.778-1.026c0.316-0.292,0.775-0.675,1.296-1.08c0.521-0.409,0.906-0.727,1.194-0.991
		c0.249-0.249,0.564-0.564,0.926-0.971c0.752-0.847,1.119-1.821,1.119-2.979c0-1.309-0.458-2.43-1.36-3.333
		C-777.455-1770.98-778.576-1771.438-779.884-1771.438z"/>
	<path fill="#603914" d="M-640.259-1756.758c-0.266,0.266-0.344,0.643-0.203,0.983c0.148,0.36,0.502,0.601,0.877,0.601
		c0.236,0,0.463-0.097,0.639-0.272c0.266-0.266,0.344-0.643,0.203-0.983C-638.985-1757.014-639.806-1757.212-640.259-1756.758z"/>
	<path fill="#603914" d="M-639.005-1772.909c-1.127,0-2.119,0.359-2.949,1.068c-0.83,0.708-1.375,1.599-1.619,2.649l-0.113,0.481
		l1.65,0.374l0.105-0.483c0.309-1.414,1.512-2.4,2.926-2.4c0.832,0,1.549,0.294,2.129,0.874c0.58,0.58,0.873,1.296,0.873,2.129
		c0,0.768-0.24,1.375-0.783,1.975c-0.318,0.36-0.572,0.635-0.801,0.846c-0.24,0.216-0.607,0.52-1.061,0.886
		c-0.67,0.533-1.145,0.963-1.443,1.241c-0.793,0.737-1.594,2.043-1.594,3.3c0,0.787,0.252,1.463,0.746,2.01l0.303,0.334l1.307-0.993
		l-0.307-0.392c-0.242-0.312-0.361-0.625-0.361-0.959c0-0.383,0.127-0.79,0.369-1.2c0.268-0.431,0.535-0.781,0.777-1.026
		c0.318-0.292,0.777-0.676,1.297-1.08c0.521-0.408,0.906-0.726,1.23-1.024c0.242-0.243,0.547-0.549,0.891-0.938
		c0.752-0.847,1.117-1.821,1.117-2.979c0-1.308-0.457-2.429-1.357-3.332C-636.575-1772.452-637.696-1772.909-639.005-1772.909z"/>
</g>
<g>
	<g>
		<g>
			<g>
				<path opacity="0.46" fill="#EAEAEA" d="M115.458-1876.162c-4.146,10.728-16.396,16.137-27.364,12.081
					c-10.967-4.054-16.496-16.039-12.35-26.767c4.146-10.728,16.396-16.136,27.363-12.082
					C114.074-1898.874,119.605-1886.89,115.458-1876.162z"/>
				<path fill="#F3F3F3" d="M115.729-1876.062c-4.201,10.874-16.62,16.356-27.736,12.245c-11.116-4.109-16.722-16.257-12.52-27.131
					c4.202-10.874,16.621-16.357,27.737-12.247S119.931-1886.936,115.729-1876.062z"/>
				<path fill="#2B2F3F" d="M120.988-1874.117c5.301-13.715-1.77-29.036-15.79-34.221c-14.021-5.185-29.685,1.73-34.985,15.446
					c-4.974,12.87,0.945,27.152,13.277,33.148l-6.624,17.142l-0.62-0.229c-1.271-0.47-2.707,0.163-3.189,1.408l-15.607,40.388
					c-0.481,1.245,0.167,2.649,1.439,3.12l6.363,2.353c1.273,0.47,2.708-0.163,3.189-1.409l15.608-40.388
					c0.48-1.245-0.166-2.648-1.439-3.12l-0.619-0.229l6.624-17.141C101.918-1854.366,116.016-1861.247,120.988-1874.117z
					 M75.744-1890.848c4.146-10.728,16.396-16.136,27.363-12.082c10.967,4.056,16.498,16.04,12.351,26.768
					c-4.146,10.728-16.396,16.137-27.364,12.081C77.127-1868.135,71.598-1880.12,75.744-1890.848z"/>
				<path fill="#F39200" d="M117.021-1876.043c-4.472,11.571-17.688,17.406-29.518,13.032c-11.83-4.374-17.796-17.302-13.324-28.874
					c4.473-11.572,17.688-17.407,29.519-13.032C115.529-1900.543,121.494-1887.616,117.021-1876.043z"/>
			</g>
		</g>
	</g>
</g>
<text transform="matrix(0.9281 0 0 1 17.0557 -1879.707)" font-family="'MyriadPro-Regular'" font-size="40.2641">em</text>
<text transform="matrix(0.9281 0 0 1 124.834 -1879.0171)" font-family="'MyriadPro-Regular'" font-size="40.2641">lear.com.ec</text>
<g>
	<path fill="#603914" d="M94.945-1893.238c1.414,0,2.565-1.265,2.565-2.819c0-1.555-1.151-2.82-2.565-2.82s-2.564,1.265-2.564,2.82
		C92.381-1894.503,93.531-1893.238,94.945-1893.238z"/>
	<path fill="#603914" d="M100.58-1884.426c0.014-0.05,0.018-0.105,0.008-0.161l-1.176-6.859c-0.096-0.642-0.591-1.107-1.18-1.107
		h-6.574c-0.589,0-1.086,0.466-1.178,1.099l-1.178,6.867c-0.01,0.056-0.007,0.11,0.008,0.161c-0.009,0.063-0.014,0.124-0.014,0.185
		c0,0.726,0.537,1.317,1.199,1.317c0.576,0,1.071-0.454,1.176-1.086l0.743-5.1l-0.003,3.888l0,0l-2.246,4.487h2.244l-0.005,7.899
		c0,0.727,0.538,1.317,1.198,1.317c0.661,0,1.199-0.591,1.199-1.317v-7.899h0.285v7.899c0,0.727,0.538,1.317,1.199,1.317
		c0.66,0,1.197-0.591,1.197-1.317l-0.004-7.899h1.721l-1.69-4.487h-0.034l-0.002-3.888l0.744,5.108
		c0.104,0.625,0.599,1.079,1.176,1.079c0.662,0,1.199-0.591,1.199-1.317C100.594-1884.302,100.589-1884.363,100.58-1884.426z"/>
</g>
<g>
	<path fill="#603914" d="M106.275-1893.285c1.422,0,2.58-1.272,2.58-2.836c0-1.563-1.158-2.835-2.58-2.835
		c-1.424,0-2.581,1.272-2.581,2.835C103.694-1894.557,104.852-1893.285,106.275-1893.285z"/>
	<path fill="#603914" d="M111.942-1884.422c0.015-0.051,0.018-0.106,0.008-0.162l-1.183-6.898c-0.096-0.646-0.594-1.113-1.188-1.113
		h-6.611c-0.593,0-1.092,0.468-1.186,1.104l-1.184,6.907c-0.01,0.056-0.007,0.111,0.008,0.162c-0.01,0.064-0.014,0.125-0.014,0.186
		c0,0.729,0.541,1.324,1.205,1.324c0.581,0,1.079-0.456,1.185-1.092l0.747-5.129l-0.01,16.368c0,0.731,0.54,1.325,1.205,1.325
		c0.664,0,1.205-0.594,1.205-1.325v-8.102h0.288v8.102c0,0.731,0.54,1.325,1.205,1.325s1.204-0.594,1.204-1.325l-0.008-16.368
		l0.746,5.137c0.106,0.628,0.604,1.084,1.185,1.084c0.665,0,1.205-0.594,1.205-1.324
		C111.956-1884.297,111.951-1884.359,111.942-1884.422z"/>
</g>
<g>
	<path fill="#603914" d="M83.615-1893.285c1.424,0,2.58-1.272,2.58-2.836c0-1.563-1.156-2.835-2.58-2.835
		c-1.422,0-2.58,1.272-2.58,2.835C81.035-1894.557,82.193-1893.285,83.615-1893.285z"/>
	<path fill="#603914" d="M89.283-1884.422c0.014-0.051,0.018-0.106,0.008-0.162l-1.184-6.898c-0.095-0.646-0.594-1.113-1.186-1.113
		h-6.611c-0.594,0-1.094,0.468-1.187,1.104l-1.185,6.907c-0.009,0.056-0.006,0.111,0.008,0.162
		c-0.009,0.064-0.013,0.125-0.013,0.186c0,0.729,0.54,1.324,1.204,1.324c0.582,0,1.08-0.456,1.186-1.092l0.746-5.129l-0.01,16.368
		c0,0.731,0.541,1.325,1.205,1.325c0.666,0,1.207-0.594,1.207-1.325v-8.102h0.287v8.102c0,0.731,0.541,1.325,1.205,1.325
		s1.205-0.594,1.205-1.325l-0.01-16.368l0.748,5.137c0.105,0.628,0.602,1.084,1.184,1.084c0.664,0,1.205-0.594,1.205-1.324
		C89.297-1884.297,89.292-1884.359,89.283-1884.422z"/>
</g>
<g>
	<g>
		<g>
			<g>
				<path opacity="0.46" fill="#EAEAEA" d="M102.001-1705.985c-4.668,13.288-18.461,19.988-30.809,14.964
					c-12.348-5.021-18.573-19.867-13.905-33.156s18.461-19.988,30.809-14.966C100.442-1734.119,106.67-1719.274,102.001-1705.985z"
					/>
				<path fill="#F3F3F3" d="M102.306-1705.862c-4.731,13.47-18.712,20.262-31.228,15.169c-12.516-5.091-18.827-20.139-14.095-33.608
					c4.731-13.469,18.713-20.261,31.229-15.169S107.036-1719.331,102.306-1705.862z"/>
				<path fill="#2B2F3F" d="M108.227-1703.453c5.968-16.989-1.992-35.968-17.777-42.391c-15.786-6.423-33.421,2.144-39.388,19.134
					c-5.6,15.941,1.063,33.633,14.948,41.061l-7.458,21.233l-0.698-0.282c-1.433-0.584-3.049,0.201-3.591,1.743l-17.573,50.029
					c-0.542,1.541,0.188,3.281,1.621,3.863l7.163,2.916c1.433,0.582,3.049-0.203,3.591-1.744l17.573-50.031
					c0.542-1.541-0.188-3.279-1.62-3.863l-0.697-0.285l7.458-21.232C86.756-1678.988,102.628-1687.51,108.227-1703.453z
					 M57.287-1724.177c4.668-13.289,18.461-19.988,30.809-14.966c12.347,5.024,18.574,19.869,13.905,33.158
					c-4.668,13.288-18.461,19.988-30.809,14.964C58.845-1696.042,52.619-1710.888,57.287-1724.177z"/>
				<path fill="#F39200" d="M103.761-1705.838c-5.034,14.333-19.914,21.562-33.233,16.143c-13.32-5.418-20.036-21.432-15.001-35.767
					c5.035-14.335,19.915-21.563,33.234-16.143C102.08-1736.187,108.796-1720.173,103.761-1705.838z"/>
			</g>
		</g>
	</g>
</g>
<text transform="matrix(0.8435 0 0 1 2.0225 -1708.9907)" font-family="'BradyBunchRemastered'" font-size="49.8756">em</text>
<text transform="matrix(0.8435 0 0 1 112.5566 -1708.1362)" font-family="'BradyBunchRemastered'" font-size="49.8756">lear.com.ec</text>
<g>
	<g>
		<g>
			<g>
				<g>
					<g>
						<path fill="#010202" d="M-290.111-1766.801c66.428,0,132.855,0,199.283,0c5.114,0,5.114-6.726,0-6.726
							c-66.428,0-132.855,0-199.283,0C-295.224-1773.526-295.224-1766.801-290.111-1766.801L-290.111-1766.801z"/>
					</g>
					<g>
						<g>
							<path fill="#010202" d="M-213.679-1765.312c0,2.951-2.821,5.345-6.3,5.345l0,0c-3.479,0-6.301-2.394-6.301-5.345v-12.376
								c0-2.951,2.821-5.345,6.301-5.345l0,0c3.479,0,6.3,2.394,6.3,5.345V-1765.312z"/>
							<path fill="#010202" d="M-203.656-1765.773c0,2.094-2.002,3.793-4.469,3.793l0,0c-2.471,0-4.472-1.699-4.472-3.793v-8.782
								c0-2.094,2.001-3.792,4.472-3.792l0,0c2.467,0,4.469,1.698,4.469,3.792V-1765.773z"/>
							<path fill="#010202" d="M-228.028-1765.773c0,2.094-2.001,3.793-4.469,3.793l0,0c-2.47,0-4.472-1.699-4.472-3.793v-8.782
								c0-2.094,2.002-3.792,4.472-3.792l0,0c2.468,0,4.469,1.698,4.469,3.792V-1765.773z"/>
						</g>
						<g>
							<path fill="#010202" d="M-153.994-1765.312c0,2.951-2.822,5.345-6.301,5.345l0,0c-3.479,0-6.301-2.394-6.301-5.345v-12.376
								c0-2.951,2.821-5.345,6.301-5.345l0,0c3.479,0,6.301,2.394,6.301,5.345V-1765.312z"/>
							<path fill="#010202" d="M-143.971-1765.773c0,2.094-2.001,3.793-4.47,3.793l0,0c-2.469,0-4.471-1.699-4.471-3.793v-8.782
								c0-2.094,2.002-3.792,4.471-3.792l0,0c2.469,0,4.47,1.698,4.47,3.792V-1765.773z"/>
							<path fill="#010202" d="M-168.342-1765.773c0,2.094-2.001,3.793-4.47,3.793l0,0c-2.469,0-4.471-1.699-4.471-3.793v-8.782
								c0-2.094,2.002-3.792,4.471-3.792l0,0c2.469,0,4.47,1.698,4.47,3.792V-1765.773z"/>
						</g>
					</g>
				</g>
				<g>
					<path fill="#010202" d="M-190.468-1879.279c-58.231-1.844-63.332-34.142-63.332-34.142v43.46v74.551
						c0,5.146,5.672,9.318,12.665,9.318h101.333c6.994,0,12.666-4.173,12.666-9.318v-74.551v-43.46
						C-127.136-1913.421-132.238-1881.124-190.468-1879.279z"/>
					<g>
						<path fill="#010202" d="M-167.187-1869.465c-9.314,0-17.653,3.523-23.281,9.079c-5.628-5.556-13.967-9.079-23.28-9.079
							c-16.951,0-30.692,11.655-30.692,26.033c0,14.379,13.741,26.036,30.692,26.036c6.032,0,11.651-1.485,16.395-4.038l6.886,8.886
							l6.885-8.886c4.743,2.553,10.363,4.038,16.396,4.038c16.95,0,30.691-11.657,30.691-26.036
							C-136.496-1857.811-150.237-1869.465-167.187-1869.465z"/>
						<ellipse fill="#010202" cx="-213.75" cy="-1843.433" rx="21.449" ry="18.195"/>
						<path fill="#010202" d="M-208.363-1842.586c-2.27,0-4.11-1.562-4.11-3.487s1.841-3.487,4.11-3.487
							c0.302,0,0.595,0.031,0.877,0.083c-1.672-1.248-3.86-2.012-6.263-2.012c-5.247,0-9.499,3.608-9.499,8.057
							c0,4.451,4.252,8.059,9.499,8.059c5.245,0,9.498-3.607,9.498-8.059c0-0.559-0.067-1.105-0.196-1.631
							C-204.958-1843.634-206.508-1842.586-208.363-1842.586z"/>
						<ellipse fill="#010202" cx="-167.188" cy="-1843.433" rx="21.448" ry="18.195"/>
						<path fill="#010202" d="M-161.801-1842.586c-2.27,0-4.109-1.562-4.109-3.487s1.84-3.487,4.109-3.487
							c0.302,0,0.596,0.031,0.88,0.083c-1.673-1.248-3.862-2.012-6.266-2.012c-5.246,0-9.498,3.608-9.498,8.057
							c0,4.451,4.252,8.059,9.498,8.059c5.245,0,9.498-3.607,9.498-8.059c0-0.559-0.066-1.105-0.195-1.631
							C-158.398-1843.634-159.945-1842.586-161.801-1842.586z"/>
					</g>
				</g>
			</g>
			<g>
				<path fill="#010202" d="M-256.737-1729.8c0,1.106-0.122,2.046-0.367,2.817s-0.646,1.396-1.205,1.874
					c-0.559,0.478-1.278,0.821-2.161,1.031c-0.881,0.21-1.988,0.313-3.319,0.313h-23.103c-1.333,0-2.439-0.104-3.321-0.313
					s-1.602-0.554-2.16-1.031c-0.559-0.479-0.96-1.103-1.205-1.874s-0.367-1.711-0.367-2.817v-15.395
					c0-2.23,0.519-3.794,1.558-4.691c1.038-0.896,2.87-1.347,5.496-1.347h23.103c2.604,0,4.433,0.45,5.48,1.347
					c1.048,0.897,1.572,2.461,1.572,4.691V-1729.8z M-263.321-1729.121v-16.753h-24.071v16.753H-263.321z"/>
				<path fill="#010202" d="M-252.886-1751.232h7.054l8.288,19.697l8.848-19.697h5.232l8.669,19.697l8.436-19.697h6.025
					l-12.345,27.469h-5.113l-8.847-19.721l-9.023,19.721h-5.173L-252.886-1751.232z"/>
				<path fill="#010202" d="M-195.72-1751.232h6.613v22.111h24.159v5.357h-30.772V-1751.232z"/>
				<path fill="#010202" d="M-150.839-1723.764v-2.015h-0.047c-1.196,1.527-2.934,2.292-5.213,2.292
					c-2.018,0-3.72-0.577-5.107-1.729c-1.393-1.153-2.091-2.59-2.091-4.309c0-1.705,0.704-3.135,2.116-4.287
					c1.395-1.14,3.088-1.709,5.082-1.709c2.271,0,4.009,0.753,5.213,2.262h0.047v-6.018h1.723v15.513H-150.839z M-152.274-1732.799
					c-1.045-0.935-2.318-1.401-3.825-1.401c-1.588,0-2.899,0.45-3.935,1.351c-1.036,0.9-1.555,2.029-1.555,3.388
					c0,1.336,0.523,2.448,1.566,3.335c1.044,0.881,2.352,1.32,3.923,1.32c1.507,0,2.78-0.461,3.825-1.381
					c1.029-0.908,1.542-2.007,1.542-3.296S-151.245-1731.878-152.274-1732.799z"/>
				<path fill="#010202" d="M-132.606-1728.962h-12.196c0.066,1.126,0.618,2.102,1.663,2.927c1.036,0.819,2.216,1.229,3.54,1.229
					c1.051,0,2.015-0.239,2.892-0.717c0.908-0.497,1.544-1.163,1.901-1.995h1.817c-0.493,1.201-1.348,2.173-2.559,2.916
					c-1.212,0.744-2.555,1.116-4.03,1.116c-1.928,0-3.577-0.591-4.949-1.771c-1.354-1.167-2.032-2.576-2.032-4.227
					c0-1.645,0.679-3.06,2.032-4.246c1.372-1.194,3.014-1.791,4.928-1.791c1.943,0,3.602,0.61,4.973,1.832
					c1.362,1.207,2.045,2.643,2.045,4.308L-132.606-1728.962z M-134.339-1730.281c-0.223-1.133-0.816-2.067-1.781-2.804
					c-0.974-0.744-2.125-1.115-3.457-1.115c-1.322,0-2.473,0.371-3.454,1.115c-0.964,0.736-1.555,1.671-1.771,2.804H-134.339z"/>
				<path fill="#010202" d="M-126.868-1723.486c-1.194,0-2.179-0.335-2.951-1.004c-0.773-0.668-1.161-1.515-1.161-2.537v-0.133
					h1.709c0.033,1.569,0.835,2.354,2.403,2.354c1.667,0,2.501-0.686,2.501-2.058c0-0.668-0.323-1.2-0.97-1.596
					c-0.255-0.157-0.59-0.311-1.004-0.461l-1.136-0.378c-0.479-0.157-0.86-0.297-1.147-0.42c-0.399-0.178-0.73-0.368-0.992-0.573
					c-0.646-0.505-0.969-1.187-0.969-2.046c0-0.936,0.361-1.699,1.087-2.292c0.717-0.594,1.626-0.891,2.727-0.891
					c1.028,0,1.894,0.3,2.595,0.9s1.053,1.341,1.053,2.221h-1.71c-0.088-1.201-0.758-1.801-2.009-1.801
					c-1.355,0-2.033,0.572-2.033,1.719c0,0.573,0.322,1.029,0.97,1.371c0.246,0.129,0.58,0.263,1.004,0.398l0.274,0.093
					c0.064,0.021,0.159,0.052,0.287,0.092l0.573,0.185c0.463,0.156,0.846,0.307,1.148,0.45c0.398,0.185,0.73,0.393,0.992,0.624
					c0.646,0.566,0.969,1.327,0.969,2.282C-122.658-1724.653-124.06-1723.486-126.868-1723.486z"/>
				<path fill="#010202" d="M-120.482-1736.626v-2.65h1.71v2.65H-120.482z M-120.482-1723.764v-11.46h1.71v11.46H-120.482z"/>
				<path fill="#010202" d="M-102.356-1725.563c0,0.436-0.011,0.809-0.036,1.114c-0.032,0.396-0.084,0.754-0.155,1.075
					c-0.184,0.764-0.525,1.43-1.028,1.995c-1.252,1.412-3.025,2.118-5.32,2.118c-1.642,0-3.069-0.361-4.279-1.085
					c-1.261-0.743-2.118-1.783-2.571-3.121h1.817c0.891,1.924,2.561,2.887,5.009,2.887c1.499,0,2.687-0.394,3.563-1.178
					c0.861-0.771,1.291-1.801,1.291-3.09v-1.013h-0.048c-0.471,0.764-1.199,1.357-2.188,1.779c-0.909,0.396-1.9,0.595-2.979,0.595
					c-1.945,0-3.593-0.577-4.948-1.729c-1.371-1.16-2.057-2.568-2.057-4.227c0-1.671,0.677-3.101,2.032-4.287
					c1.363-1.194,3.021-1.791,4.973-1.791c2.264,0,3.986,0.781,5.166,2.343h0.048v-2.046h1.71V-1725.563z M-105.5-1732.788
					c-1.037-0.941-2.296-1.412-3.779-1.412c-1.489,0-2.748,0.471-3.778,1.412c-1.011,0.914-1.518,2.016-1.518,3.305
					c0,1.275,0.507,2.367,1.518,3.274c1.03,0.935,2.289,1.402,3.778,1.402c1.468,0,2.723-0.468,3.769-1.402
					c1.026-0.914,1.541-2.006,1.541-3.274C-103.97-1730.759-104.481-1731.861-105.5-1732.788z"/>
				<path fill="#010202" d="M-89.048-1723.764v-6.303c0-0.614-0.096-1.181-0.287-1.699c-0.216-0.607-0.545-1.091-0.992-1.452
					c-0.814-0.655-1.781-0.982-2.906-0.982c-1.132,0-2.105,0.327-2.918,0.982c-0.438,0.354-0.765,0.824-0.979,1.412
					c-0.183,0.504-0.274,1.047-0.274,1.626v6.416h-1.711v-11.46h1.711v1.463h0.047c0.887-1.174,2.26-1.76,4.125-1.76
					c1.874,0,3.336,0.511,4.389,1.534c1.004,0.982,1.507,2.289,1.507,3.92v6.303H-89.048z"/>
			</g>
		</g>
		<g>
			<g>
				<g>
					<g>
						<path fill="#F39323" d="M-296.586-1766.801c66.429,0,132.855,0,199.284,0c5.112,0,5.112-6.726,0-6.726
							c-66.429,0-132.855,0-199.284,0C-301.7-1773.526-301.7-1766.801-296.586-1766.801L-296.586-1766.801z"/>
					</g>
					<g>
						<g>
							<path fill="#F39323" d="M-220.155-1765.312c0,2.951-2.821,5.345-6.301,5.345l0,0c-3.479,0-6.301-2.394-6.301-5.345v-12.376
								c0-2.951,2.822-5.345,6.301-5.345l0,0c3.479,0,6.301,2.394,6.301,5.345V-1765.312z"/>
							<path fill="#F39323" d="M-210.132-1765.773c0,2.094-2,3.793-4.469,3.793l0,0c-2.47,0-4.471-1.699-4.471-3.793v-8.782
								c0-2.094,2.001-3.792,4.471-3.792l0,0c2.469,0,4.469,1.698,4.469,3.792V-1765.773z"/>
							<path fill="#F39323" d="M-234.504-1765.773c0,2.094-2,3.793-4.469,3.793l0,0c-2.469,0-4.47-1.699-4.47-3.793v-8.782
								c0-2.094,2.001-3.792,4.47-3.792l0,0c2.469,0,4.469,1.698,4.469,3.792V-1765.773z"/>
						</g>
						<g>
							<path fill="#F39323" d="M-160.47-1765.312c0,2.951-2.82,5.345-6.299,5.345l0,0c-3.479,0-6.301-2.394-6.301-5.345v-12.376
								c0-2.951,2.821-5.345,6.301-5.345l0,0c3.479,0,6.299,2.394,6.299,5.345V-1765.312z"/>
							<path fill="#F39323" d="M-150.446-1765.773c0,2.094-2.002,3.793-4.471,3.793l0,0c-2.468,0-4.47-1.699-4.47-3.793v-8.782
								c0-2.094,2.002-3.792,4.47-3.792l0,0c2.469,0,4.471,1.698,4.471,3.792V-1765.773z"/>
							<path fill="#F39323" d="M-174.818-1765.773c0,2.094-2.001,3.793-4.47,3.793l0,0c-2.469,0-4.471-1.699-4.471-3.793v-8.782
								c0-2.094,2.002-3.792,4.471-3.792l0,0c2.469,0,4.47,1.698,4.47,3.792V-1765.773z"/>
						</g>
					</g>
				</g>
				<g>
					<path fill="#F39323" d="M-196.943-1879.279c-58.232-1.844-63.334-34.142-63.334-34.142v43.46v74.551
						c0,5.146,5.673,9.318,12.666,9.318h101.333c6.994,0,12.666-4.173,12.666-9.318v-74.551v-43.46
						C-133.612-1913.421-138.712-1881.124-196.943-1879.279z"/>
					<g>
						<path fill="#183939" d="M-173.662-1869.465c-9.314,0-17.654,3.523-23.283,9.079c-5.628-5.556-13.967-9.079-23.28-9.079
							c-16.95,0-30.691,11.655-30.691,26.033c0,14.379,13.741,26.036,30.691,26.036c6.033,0,11.651-1.485,16.396-4.038l6.885,8.886
							l6.887-8.886c4.743,2.553,10.361,4.038,16.396,4.038c16.949,0,30.69-11.657,30.69-26.036
							C-142.971-1857.811-156.712-1869.465-173.662-1869.465z"/>
						<ellipse fill="#FFFFFF" cx="-220.225" cy="-1843.433" rx="21.449" ry="18.195"/>
						<path fill="#1B1B1B" d="M-214.837-1842.586c-2.271,0-4.111-1.562-4.111-3.487s1.841-3.487,4.111-3.487
							c0.302,0,0.593,0.031,0.877,0.083c-1.674-1.248-3.861-2.012-6.265-2.012c-5.247,0-9.499,3.608-9.499,8.057
							c0,4.451,4.252,8.059,9.499,8.059c5.246,0,9.498-3.607,9.498-8.059c0-0.559-0.066-1.105-0.194-1.631
							C-211.434-1843.634-212.983-1842.586-214.837-1842.586z"/>
						<ellipse fill="#FFFFFF" cx="-173.664" cy="-1843.433" rx="21.449" ry="18.195"/>
						<path fill="#1B1B1B" d="M-168.277-1842.586c-2.271,0-4.109-1.562-4.109-3.487s1.839-3.487,4.109-3.487
							c0.303,0,0.596,0.031,0.88,0.083c-1.673-1.248-3.862-2.012-6.265-2.012c-5.247,0-9.5,3.608-9.5,8.057
							c0,4.451,4.253,8.059,9.5,8.059c5.243,0,9.498-3.607,9.498-8.059c0-0.559-0.068-1.105-0.195-1.631
							C-164.874-1843.634-166.421-1842.586-168.277-1842.586z"/>
					</g>
				</g>
			</g>
			<g>
				<path fill="#F39323" d="M-263.212-1729.8c0,1.106-0.122,2.046-0.367,2.817s-0.646,1.396-1.205,1.874
					c-0.559,0.478-1.279,0.821-2.16,1.031c-0.882,0.21-1.989,0.313-3.321,0.313h-23.102c-1.333,0-2.439-0.104-3.321-0.313
					c-0.881-0.21-1.602-0.554-2.16-1.031c-0.559-0.479-0.96-1.103-1.205-1.874s-0.367-1.711-0.367-2.817v-15.395
					c0-2.23,0.52-3.794,1.558-4.691c1.039-0.896,2.87-1.347,5.496-1.347h23.102c2.605,0,4.434,0.45,5.481,1.347
					c1.048,0.897,1.572,2.461,1.572,4.691V-1729.8z M-269.795-1729.121v-16.753h-24.071v16.753H-269.795z"/>
				<path fill="#F39323" d="M-259.362-1751.232h7.054l8.288,19.697l8.849-19.697h5.23l8.671,19.697l8.435-19.697h6.024
					l-12.343,27.469h-5.114l-8.848-19.721l-9.022,19.721h-5.173L-259.362-1751.232z"/>
				<path fill="#F39323" d="M-202.197-1751.232h6.613v22.111h24.16v5.357h-30.773V-1751.232z"/>
				<path fill="#F39323" d="M-157.315-1723.764v-2.015h-0.048c-1.195,1.527-2.933,2.292-5.213,2.292
					c-2.017,0-3.72-0.577-5.105-1.729c-1.395-1.153-2.092-2.59-2.092-4.309c0-1.705,0.704-3.135,2.115-4.287
					c1.396-1.14,3.089-1.709,5.082-1.709c2.272,0,4.01,0.753,5.213,2.262h0.048v-6.018h1.722v15.513H-157.315z M-158.75-1732.799
					c-1.045-0.935-2.319-1.401-3.826-1.401c-1.586,0-2.897,0.45-3.934,1.351c-1.035,0.9-1.555,2.029-1.555,3.388
					c0,1.336,0.522,2.448,1.566,3.335c1.045,0.881,2.352,1.32,3.922,1.32c1.507,0,2.781-0.461,3.826-1.381
					c1.028-0.908,1.541-2.007,1.541-3.296S-157.721-1731.878-158.75-1732.799z"/>
				<path fill="#F39323" d="M-139.082-1728.962h-12.195c0.064,1.126,0.617,2.102,1.662,2.927c1.036,0.819,2.216,1.229,3.539,1.229
					c1.053,0,2.017-0.239,2.893-0.717c0.908-0.497,1.543-1.163,1.901-1.995h1.817c-0.493,1.201-1.347,2.173-2.558,2.916
					c-1.212,0.744-2.556,1.116-4.03,1.116c-1.929,0-3.579-0.591-4.949-1.771c-1.354-1.167-2.033-2.576-2.033-4.227
					c0-1.645,0.679-3.06,2.033-4.246c1.37-1.194,3.013-1.791,4.926-1.791c1.945,0,3.603,0.61,4.974,1.832
					c1.362,1.207,2.044,2.643,2.044,4.308L-139.082-1728.962z M-140.815-1730.281c-0.224-1.133-0.817-2.067-1.781-2.804
					c-0.973-0.744-2.125-1.115-3.456-1.115c-1.322,0-2.475,0.371-3.455,1.115c-0.964,0.736-1.554,1.671-1.77,2.804H-140.815z"/>
				<path fill="#F39323" d="M-133.342-1723.486c-1.196,0-2.18-0.335-2.952-1.004c-0.773-0.668-1.161-1.515-1.161-2.537v-0.133h1.71
					c0.032,1.569,0.834,2.354,2.403,2.354c1.665,0,2.499-0.686,2.499-2.058c0-0.668-0.323-1.2-0.969-1.596
					c-0.254-0.157-0.59-0.311-1.005-0.461l-1.134-0.378c-0.479-0.157-0.861-0.297-1.148-0.42c-0.399-0.178-0.73-0.368-0.993-0.573
					c-0.646-0.505-0.968-1.187-0.968-2.046c0-0.936,0.361-1.699,1.087-2.292c0.718-0.594,1.626-0.891,2.726-0.891
					c1.029,0,1.895,0.3,2.597,0.9c0.7,0.601,1.052,1.341,1.052,2.221h-1.711c-0.087-1.201-0.756-1.801-2.008-1.801
					c-1.354,0-2.033,0.572-2.033,1.719c0,0.573,0.322,1.029,0.969,1.371c0.247,0.129,0.582,0.263,1.006,0.398l0.272,0.093
					c0.064,0.021,0.161,0.052,0.287,0.092l0.574,0.185c0.464,0.156,0.846,0.307,1.148,0.45c0.398,0.185,0.729,0.393,0.991,0.624
					c0.647,0.566,0.969,1.327,0.969,2.282C-129.134-1724.653-130.537-1723.486-133.342-1723.486z"/>
				<path fill="#F39323" d="M-126.957-1736.626v-2.65h1.709v2.65H-126.957z M-126.957-1723.764v-11.46h1.709v11.46H-126.957z"/>
				<path fill="#F39323" d="M-108.831-1725.563c0,0.436-0.013,0.809-0.037,1.114c-0.032,0.396-0.083,0.754-0.154,1.075
					c-0.185,0.764-0.527,1.43-1.03,1.995c-1.25,1.412-3.023,2.118-5.32,2.118c-1.641,0-3.067-0.361-4.278-1.085
					c-1.261-0.743-2.117-1.783-2.571-3.121h1.817c0.892,1.924,2.562,2.887,5.01,2.887c1.499,0,2.687-0.394,3.562-1.178
					c0.861-0.771,1.292-1.801,1.292-3.09v-1.013h-0.048c-0.47,0.764-1.2,1.357-2.188,1.779c-0.909,0.396-1.9,0.595-2.977,0.595
					c-1.945,0-3.595-0.577-4.95-1.729c-1.37-1.16-2.057-2.568-2.057-4.227c0-1.671,0.679-3.101,2.033-4.287
					c1.364-1.194,3.021-1.791,4.974-1.791c2.263,0,3.985,0.781,5.165,2.343h0.048v-2.046h1.711V-1725.563z M-111.976-1732.788
					c-1.037-0.941-2.296-1.412-3.778-1.412c-1.489,0-2.75,0.471-3.778,1.412c-1.012,0.914-1.519,2.016-1.519,3.305
					c0,1.275,0.507,2.367,1.519,3.274c1.028,0.935,2.289,1.402,3.778,1.402c1.467,0,2.722-0.468,3.767-1.402
					c1.028-0.914,1.542-2.006,1.542-3.274C-110.446-1730.759-110.957-1731.861-111.976-1732.788z"/>
				<path fill="#F39323" d="M-95.525-1723.764v-6.303c0-0.614-0.095-1.181-0.287-1.699c-0.215-0.607-0.545-1.091-0.991-1.452
					c-0.813-0.655-1.782-0.982-2.906-0.982c-1.131,0-2.104,0.327-2.917,0.982c-0.438,0.354-0.766,0.824-0.98,1.412
					c-0.184,0.504-0.275,1.047-0.275,1.626v6.416h-1.71v-11.46h1.71v1.463h0.049c0.885-1.174,2.258-1.76,4.124-1.76
					c1.874,0,3.335,0.511,4.389,1.534c1.003,0.982,1.507,2.289,1.507,3.92v6.303H-95.525z"/>
			</g>
		</g>
	</g>
</g>
<g>
	<path fill="#183939" d="M89.186-1732.617c-3.817,0-7.235,2.069-9.542,5.333c-2.306-3.264-5.724-5.333-9.54-5.333
		c-6.946,0-12.577,6.846-12.577,15.291c0,8.446,5.631,15.293,12.577,15.293c2.473,0,4.775-0.872,6.719-2.371l2.821,5.219l2.823-5.22
		c1.943,1.5,4.245,2.372,6.719,2.372c6.945,0,12.576-6.847,12.576-15.293C101.762-1725.771,96.131-1732.617,89.186-1732.617z"/>
	<ellipse fill="#FFFFFF" cx="70.104" cy="-1717.326" rx="8.79" ry="10.688"/>
	<path fill="#1B1B1B" d="M72.311-1716.829c-0.93,0-1.684-0.917-1.684-2.048c0-1.132,0.754-2.049,1.684-2.049
		c0.125,0,0.244,0.019,0.36,0.049c-0.686-0.732-1.583-1.182-2.567-1.182c-2.15,0-3.893,2.119-3.893,4.732
		c0,2.614,1.742,4.733,3.893,4.733s3.893-2.119,3.893-4.733c0-0.328-0.027-0.649-0.08-0.959
		C73.707-1717.443,73.071-1716.829,72.311-1716.829z"/>
	<ellipse fill="#FFFFFF" cx="89.185" cy="-1717.326" rx="8.79" ry="10.688"/>
	<path fill="#1B1B1B" d="M91.393-1716.829c-0.931,0-1.685-0.917-1.685-2.048c0-1.132,0.754-2.049,1.685-2.049
		c0.123,0,0.244,0.019,0.359,0.049c-0.686-0.732-1.582-1.182-2.566-1.182c-2.15,0-3.893,2.119-3.893,4.732
		c0,2.614,1.742,4.733,3.893,4.733c2.148,0,3.893-2.119,3.893-4.733c0-0.328-0.028-0.649-0.08-0.959
		C92.787-1717.443,92.152-1716.829,91.393-1716.829z"/>
</g>
<g>
	<g>
		<g>
			<g>
				<path opacity="0.46" fill="#EAEAEA" d="M98.763-1519.549c-5.274,13.387-20.862,20.137-34.817,15.074
					c-13.954-5.059-20.989-20.014-15.714-33.4s20.862-20.136,34.817-15.076C97.002-1547.89,104.039-1532.936,98.763-1519.549z"/>
				<path fill="#F3F3F3" d="M99.107-1519.425c-5.348,13.569-21.147,20.412-35.292,15.281c-14.144-5.129-21.276-20.287-15.929-33.855
					c5.347-13.569,21.147-20.411,35.292-15.281C97.322-1548.151,104.453-1532.993,99.107-1519.425z"/>
				<path fill="#2B2F3F" d="M105.799-1516.997c6.744-17.115-2.252-36.234-20.091-42.704c-17.84-6.47-37.769,2.16-44.513,19.275
					c-6.328,16.059,1.202,33.881,16.893,41.363l-8.428,21.391l-0.788-0.285c-1.619-0.588-3.445,0.203-4.058,1.757l-19.859,50.397
					c-0.612,1.553,0.212,3.305,1.832,3.893l8.096,2.936c1.62,0.588,3.445-0.203,4.058-1.757l19.859-50.398
					c0.612-1.553-0.212-3.304-1.831-3.893l-0.788-0.286l8.428-21.391C81.535-1492.352,99.471-1500.938,105.799-1516.997z
					 M48.231-1537.875c5.275-13.387,20.862-20.136,34.817-15.076c13.953,5.062,20.99,20.016,15.714,33.402
					c-5.274,13.387-20.862,20.137-34.817,15.074C49.992-1509.533,42.957-1524.488,48.231-1537.875z"/>
				<path fill="#F39200" d="M100.752-1519.4c-5.689,14.438-22.506,21.72-37.557,16.262c-15.053-5.459-22.643-21.591-16.953-36.031
					c5.69-14.44,22.505-21.721,37.558-16.262C98.854-1549.973,106.441-1533.842,100.752-1519.4z"/>
			</g>
		</g>
	</g>
</g>
<text transform="matrix(0.9463 0 0 1 -26.4404 -1522.5771)" font-family="'FranklinGothic-DemiCond'" font-size="50.2434">em</text>
<text transform="matrix(0.9463 0 0 1 110.6914 -1521.7158)" font-family="'FranklinGothic-DemiCond'" font-size="50.2434">lear.com.ec</text>
<g>
	<ellipse fill="#FFFFFF" cx="72.182" cy="-1530.108" rx="22.175" ry="21.833"/>
	<path fill="#1B1B1B" d="M77.751-1529.093c-2.347,0-4.249-1.874-4.249-4.185c0-2.312,1.902-4.185,4.249-4.185
		c0.313,0,0.613,0.036,0.907,0.099c-1.73-1.497-3.992-2.414-6.477-2.414c-5.425,0-9.82,4.33-9.82,9.669c0,5.34,4.396,9.67,9.82,9.67
		c5.424,0,9.82-4.33,9.82-9.67c0-0.671-0.068-1.327-0.203-1.959C81.271-1530.35,79.668-1529.093,77.751-1529.093z"/>
</g>
<text transform="matrix(1.1294 0 0 1 -204.1167 -1322.3555)" font-family="'Arial-BoldMT'" font-size="35.7194">mplear.ec</text>
<g>
	<g>
		<g>
			<g>
				<path opacity="0.46" fill="#EAEAEA" d="M-213.813-1321.556c-5.491,12.839-21.716,19.313-36.241,14.458
					c-14.524-4.852-21.848-19.195-16.356-32.035c5.491-12.84,21.715-19.313,36.241-14.461
					C-215.646-1348.738-208.321-1334.396-213.813-1321.556z"/>
				<path fill="#F3F3F3" d="M-213.455-1321.437c-5.565,13.015-22.012,19.577-36.734,14.657c-14.722-4.92-22.146-19.459-16.58-32.474
					c5.565-13.015,22.012-19.576,36.734-14.657C-215.312-1348.99-207.89-1334.45-213.455-1321.437z"/>
				<path fill="#2B2F3F" d="M-206.49-1319.108c7.021-16.416-2.343-34.754-20.912-40.959c-18.57-6.206-39.314,2.071-46.333,18.487
					c-6.587,15.402,1.251,32.497,17.583,39.674l-8.773,20.516l-0.82-0.272c-1.686-0.563-3.586,0.194-4.224,1.685l-20.671,48.339
					c-0.637,1.488,0.221,3.17,1.907,3.733l8.426,2.815c1.686,0.563,3.586-0.194,4.224-1.685l20.671-48.34
					c0.638-1.489-0.22-3.169-1.906-3.733l-0.82-0.274l8.773-20.517C-231.746-1295.47-213.076-1303.705-206.49-1319.108z
					 M-266.411-1339.133c5.491-12.84,21.715-19.313,36.241-14.461c14.523,4.855,21.849,19.198,16.357,32.038
					c-5.491,12.839-21.716,19.313-36.241,14.458C-264.579-1311.949-271.902-1326.293-266.411-1339.133z"/>
				<path fill="#F39200" d="M-211.743-1321.414c-5.922,13.85-23.425,20.833-39.093,15.598
					c-15.668-5.235-23.568-20.708-17.646-34.559c5.923-13.851,23.426-20.834,39.094-15.598
					C-213.719-1350.737-205.82-1335.265-211.743-1321.414z"/>
			</g>
		</g>
	</g>
</g>
<text transform="matrix(1.337 0 0 1 -265.9038 -1312.9375)" fill="#FFFFFF" font-family="'Arial-BoldMT'" font-size="68.0545">e</text>
<text transform="matrix(1.1896 0 0 1 -160.4194 -1308.5186)" font-family="'ArialNarrow-Bold'" font-size="18.7408">bolsa de empleo</text>
<text transform="matrix(1.0997 0 0 1 57.29 -1141.2803)" font-family="'Arial-BoldMT'" font-size="53.3671">emplear.ec</text>
<text transform="matrix(1.1399 0 0 1 154.8633 -1120.6084)" fill="#F39200" font-family="'ArialNarrow-Bold'" font-size="28">bolsa de empleo</text>
<g>
	<path fill="#F39200" d="M341.191-1205.483c-4.932,0-9.348,2.281-12.327,5.879c-2.979-3.598-7.394-5.879-12.325-5.879
		c-8.974,0-16.248,7.547-16.248,16.856c0,9.311,7.274,16.858,16.248,16.858c3.195,0,6.169-0.962,8.681-2.614l3.645,5.754
		l3.646-5.754c2.512,1.652,5.486,2.614,8.682,2.614c8.973,0,16.247-7.548,16.247-16.858
		C357.438-1197.937,350.164-1205.483,341.191-1205.483z"/>
	<ellipse fill="#FFFFFF" cx="316.54" cy="-1188.627" rx="11.355" ry="11.781"/>
	<path fill="#1B1B1B" d="M319.392-1188.079c-1.201,0-2.176-1.011-2.176-2.258s0.975-2.258,2.176-2.258
		c0.16,0,0.314,0.021,0.464,0.054c-0.886-0.808-2.044-1.303-3.316-1.303c-2.777,0-5.028,2.336-5.028,5.217
		c0,2.882,2.251,5.218,5.028,5.218c2.778,0,5.028-2.336,5.028-5.218c0-0.361-0.035-0.716-0.103-1.057
		C321.194-1188.757,320.373-1188.079,319.392-1188.079z"/>
	<ellipse fill="#FFFFFF" cx="341.19" cy="-1188.627" rx="11.356" ry="11.781"/>
	<path fill="#1B1B1B" d="M344.042-1188.079c-1.203,0-2.176-1.011-2.176-2.258s0.973-2.258,2.176-2.258
		c0.16,0,0.315,0.021,0.466,0.054c-0.886-0.808-2.045-1.303-3.316-1.303c-2.778,0-5.029,2.336-5.029,5.217
		c0,2.882,2.251,5.218,5.029,5.218c2.775,0,5.027-2.336,5.027-5.218c0-0.361-0.035-0.716-0.104-1.057
		C345.844-1188.757,345.024-1188.079,344.042-1188.079z"/>
</g>
<text transform="matrix(1.0997 0 0 1 31.5161 -994.6953)" font-family="'Arial-BoldMT'" font-size="53.3671">mplear.ec</text>
<g>
	<g>
		<g>
			<g>
				<path opacity="0.46" fill="#EAEAEA" d="M17.41-993.501c-7.988,19.183-31.593,28.855-52.725,21.602
					c-21.131-7.249-31.785-28.68-23.797-47.863s31.593-28.855,52.725-21.604C14.744-1034.114,25.4-1012.685,17.41-993.501z"/>
				<path fill="#F3F3F3" d="M17.933-993.323c-8.097,19.445-32.024,29.25-53.443,21.898c-21.419-7.35-32.219-29.072-24.122-48.517
					c8.097-19.444,32.024-29.249,53.444-21.898S26.028-1012.767,17.933-993.323z"/>
				<path fill="#2B2F3F" d="M28.065-989.845c10.214-24.526-3.409-51.924-30.424-61.195c-27.016-9.271-57.196,3.095-67.408,27.621
					c-9.583,23.013,1.82,48.553,25.582,59.275l-12.763,30.652l-1.194-0.408c-2.452-0.842-5.217,0.291-6.145,2.518l-30.074,72.221
					c-0.927,2.225,0.321,4.736,2.774,5.578l12.259,4.207c2.453,0.842,5.218-0.291,6.145-2.518l30.074-72.223
					c0.927-2.225-0.321-4.734-2.772-5.578l-1.194-0.41l12.763-30.652C-8.679-954.527,18.484-966.831,28.065-989.845z
					 M-59.111-1019.763c7.988-19.184,31.593-28.855,52.725-21.604c21.13,7.253,31.787,28.683,23.796,47.866
					c-7.988,19.183-31.593,28.855-52.725,21.602C-56.445-979.148-67.1-1000.579-59.111-1019.763z"/>
				<path fill="#F39200" d="M20.423-993.289c-8.616,20.691-34.081,31.126-56.875,23.304c-22.795-7.822-34.289-30.939-25.672-51.633
					c8.617-20.693,34.081-31.127,56.875-23.304C17.547-1037.1,29.039-1013.983,20.423-993.289z"/>
			</g>
		</g>
	</g>
</g>
<text transform="matrix(1.3019 0 0 1 -58.3745 -980.625)" fill="#FFFFFF" font-family="'Arial-BoldMT'" font-size="101.6777">e</text>
<text transform="matrix(1.1399 0 0 1 98.7119 -972.6904)" fill="#F39200" font-family="'ArialNarrow-Bold'" font-size="28">bolsa de empleo</text>
<g>
	<g>
		<g>
			<g>
				<path opacity="0.46" fill="#EAEAEA" d="M-586.998-683.61c-53.861,139.713-213.013,210.162-355.492,157.332
					c-142.474-52.798-214.309-208.882-160.449-348.601c53.861-139.722,213.012-210.161,355.492-157.352
					C-604.975-979.406-533.125-823.329-586.998-683.61z"/>
				<path fill="#F3F3F3" d="M-583.477-682.314c-54.591,141.626-215.922,213.036-360.338,159.492
					c-144.415-53.529-217.238-211.742-162.641-353.359c54.592-141.616,215.922-213.026,360.338-159.492
					C-601.695-982.138-528.892-823.925-583.477-682.314z"/>
				<path fill="#2B2F3F" d="M-515.156-656.98c68.866-178.632-22.986-378.172-205.131-445.701
					c-182.157-67.526-385.641,22.541-454.494,201.172c-64.613,167.607,12.273,353.621,172.479,431.719l-86.052,223.248l-8.053-2.975
					c-16.526-6.129-35.174,2.119-41.429,18.337l-202.773,526.001c-6.249,16.204,2.173,34.497,18.706,40.627l82.654,30.642
					c16.54,6.134,35.187-2.12,41.436-18.335l202.767-526.018c6.255-16.202-2.16-34.48-18.688-40.625l-8.052-2.989l86.052-223.247
					C-762.9-399.754-579.756-489.366-515.156-656.98z M-1102.939-874.879c53.861-139.722,213.012-210.161,355.492-157.352
					c142.473,52.824,214.322,208.901,160.449,348.62c-53.861,139.713-213.013,210.162-355.492,157.332
					C-1084.964-579.076-1156.799-735.16-1102.939-874.879z"/>
				<path fill="#F39200" d="M-566.686-682.067c-58.094,150.704-229.789,226.7-383.469,169.729
					c-153.693-56.972-231.191-225.339-173.092-376.056c58.102-150.716,229.783-226.706,383.477-169.727
					C-586.077-1001.149-508.592-832.788-566.686-682.067z"/>
			</g>
		</g>
	</g>
</g>
<text transform="matrix(1.1107 0 0 1 -1097.9727 -572.7637)" fill="#FFFFFF" font-family="'Arial-BoldMT'" font-size="828.0478">e</text>
<g>
	<g>
		<g>
			<g>
				<path opacity="0.46" fill="#EAEAEA" d="M-4352.596,507.096c-26.436,102.806-104.548,154.646-174.479,115.771
					c-69.927-38.851-105.185-153.704-78.75-256.515c26.436-102.813,104.548-154.645,174.479-115.785
					C-4361.419,289.437-4326.155,404.284-4352.596,507.096z"/>
				<path fill="#F3F3F3" d="M-4350.868,508.049c-26.793,104.214-105.977,156.761-176.857,117.361
					c-70.88-39.39-106.623-155.809-79.826-260.017c26.794-104.207,105.977-156.754,176.857-117.361
					C-4359.81,287.427-4324.077,403.846-4350.868,508.049z"/>
				<path fill="#2B2F3F" d="M-4317.335,526.69c33.8-131.444-11.282-278.274-100.68-327.965
					c-89.404-49.688-189.276,16.587-223.07,148.03c-31.712,123.332,6.024,260.209,84.654,317.676l-42.235,164.275l-3.952-2.188
					c-8.111-4.511-17.264,1.56-20.333,13.493l-99.523,387.053c-3.067,11.924,1.066,25.384,9.182,29.895l40.567,22.548
					c8.118,4.513,17.27-1.561,20.337-13.492l99.52-387.065c3.07-11.922-1.06-25.371-9.172-29.893l-3.952-2.2l42.235-164.274
					C-4438.931,715.969-4349.042,650.027-4317.335,526.69z M-4605.825,366.352c26.436-102.813,104.548-154.645,174.479-115.785
					c69.927,38.87,105.191,153.718,78.75,256.529c-26.436,102.806-104.548,154.646-174.479,115.771
					C-4597.002,584.016-4632.26,469.162-4605.825,366.352z"/>
				<path fill="#F39200" d="M-4342.626,508.23c-28.513,110.895-112.783,166.815-188.21,124.893
					c-75.434-41.922-113.471-165.813-84.955-276.717c28.517-110.902,112.78-166.819,188.214-124.892
					C-4352.144,273.438-4314.113,397.324-4342.626,508.23z"/>
			</g>
		</g>
	</g>
</g>
<radialGradient id="SVGID_2_" cx="-900.0884" cy="-306.9883" r="66.2862" gradientTransform="matrix(3.3786 2.2028 -2.6256 9.0515 -2062.5879 4658.873)" gradientUnits="userSpaceOnUse">
	<stop  offset="0" style="stop-color:#F8B484"/>
	<stop  offset="0.989" style="stop-color:#E73A1C"/>
</radialGradient>
<polygon fill="url(#SVGID_2_)" points="-4339.365,-44.367 -4479.21,437.456 -4152.397,119.455 -4363.274,212.558 "/>
<g>
	<path fill="#010202" d="M-4624.096,384.972l16.158-5.729c4.556-1.613,9.106,2.74,10.195,9.762l0.372,2.388l3.913-1.454
		c1.084-7.237,3.432-12.401,5.042-15.942c0.39-0.852,0.879-1.932,1.18-2.696c-0.404-1.604-1.173-4.244-1.723-6.131
		c-3.23-11.096-6.035-20.73-3.42-29.163c3.187-11.468,9.66-17.151,17.818-15.604c1.383,0.264,2.857,0.734,4.379,1.407
		c0.834,0.37,1.628,0.933,2.352,1.667c7.3,7.43,9.52,16.668,10.846,22.189c0.064,0.264,0.121,0.531,0.172,0.797l3.555,18.307
		l16.292-6.351c1.022-0.397,2.08-0.501,3.126-0.3c0.007,0,0.012,0.001,0.018,0.001c10.286,1.984,16.22,11.509,16.63,26.387
		c5.937,6.786,8.573,16.56,7.434,27.411c3.931,7.548,4.746,16.922,2.419,27.912c-0.376,1.769-0.983,3.365-1.765,4.707
		c0.456,7.75,0.614,24.098-13.19,29.575c-0.058,0.022-0.114,0.047-0.171,0.065l-30.143,10.945
		c-5.319,2.225-9.868,2.938-13.903,2.171c-4.252-0.806-7.921-3.342-10.781-7.358l-6.522,2.607c-0.151,1.857-0.551,3.664-1.203,5.289
		c-1.198,2.983-3.119,5.104-5.334,5.889l-28.741,10.205c-0.978,0.349-1.975,0.422-2.946,0.237c-1.518-0.289-2.975-1.203-4.204-2.687
		c-2.025-2.434-3.229-6.151-3.281-10.113l-1.184-93.31C-4630.788,391.826-4628.027,386.365-4624.096,384.972z"/>
	<g>
		<path fill="#FFFFFF" d="M-4586.344,468.016l12.529-5.001c2.547,8.479,8.289,11.985,19.27,7.343l30.288-10.996
			c7.849-3.115,7.18-10.342,6.709-17.473l-15.79,6.354l-1.535-7.248l19.593-7.265c1.825-8.614,0.544-13.328-1.688-16.843
			l-18.264,7.403l-1.699-6.95l18.612-7.343c1.228-6.922,0.124-12.92-4.375-17.57l-18.537,7.246l-1.214-6.862l16.872-6.69
			c0.508-11.961-3.524-15.871-9.145-16.956l-24.2,9.429l-5.896-30.363c-1.32-5.488-2.797-10.945-7.547-15.781
			c-7.387-3.254-10.438,0.744-12.113,7.051c-1.58,4.412,4.913,21.477,5.899,27.646c1.56,10.513-7.72,14.732-6.72,31.337
			l-11.03,4.104L-4586.344,468.016z"/>
		<polygon fill="#FFFFFF" points="-4605.872,390.056 -4592.103,478.891 -4620.845,489.094 -4622.03,395.785 		"/>
	</g>
</g>
<g id="XMLID_24060_" opacity="0.6">
	
		<rect id="XMLID_24069_" x="-2581.204" y="-272.776" fill="none" stroke="#F1F1F1" stroke-width="1.7094" stroke-miterlimit="10" width="750.718" height="587.582"/>
	
		<rect id="XMLID_24068_" x="-2464.089" y="-220.768" fill="none" stroke="#F1F1F1" stroke-width="1.7094" stroke-miterlimit="10" width="516.512" height="313.726"/>
	<polygon id="XMLID_24067_" fill="none" stroke="#F1F1F1" stroke-width="1.2087" stroke-miterlimit="10" points="-1917.939,14.784 
		-1852.636,-63.912 -1917.939,-142.608 	"/>
	<polygon id="XMLID_24066_" fill="none" stroke="#F1F1F1" stroke-width="1.2087" stroke-miterlimit="10" points="-2493.727,14.784 
		-2559.03,-63.912 -2493.727,-142.608 	"/>
	<g id="XMLID_24061_">
		
			<rect id="XMLID_24065_" x="-2023.99" y="127.61" fill="none" stroke="#F1F1F1" stroke-width="1.2087" stroke-miterlimit="10" width="134.593" height="140.512"/>
		
			<rect id="XMLID_24064_" x="-2190.101" y="127.61" fill="none" stroke="#F1F1F1" stroke-width="1.2087" stroke-miterlimit="10" width="134.624" height="140.512"/>
		
			<rect id="XMLID_24063_" x="-2356.181" y="127.61" fill="none" stroke="#F1F1F1" stroke-width="1.2087" stroke-miterlimit="10" width="134.593" height="140.512"/>
		
			<rect id="XMLID_24062_" x="-2522.278" y="127.61" fill="none" stroke="#F1F1F1" stroke-width="1.2087" stroke-miterlimit="10" width="134.616" height="140.512"/>
	</g>
</g>
<g id="XMLID_23955_">
	<path id="XMLID_23962_" fill="#EB5B29" d="M-2797.58-568.12c-22.128,23.096-57.938,23.096-80.072,0l0,0
		c-22.113-23.051-22.113-60.449,0-83.547l285.052-297.475c22.082-23.051,57.922-23.051,80.02,0l0,0
		c22.112,23.082,22.112,60.496,0,83.576L-2797.58-568.12z"/>
	<polygon id="XMLID_23961_" fill="#2F398B" points="-2501.274,-885.438 -2573.608,-960.911 -2427.791,-1113.103 
		-2355.441,-1037.599 	"/>
	<path id="XMLID_23958_" fill="#EB5B29" d="M-1974.132-1511.065c-111.11-115.927-291.861-115.958-402.973,0
		c-111.111,115.973-111.081,304.627,0,420.568c111.111,115.912,291.862,115.957,402.973,0
		C-1863.036-1206.438-1863.036-1395.093-1974.132-1511.065 M-1936.938-1549.861c131.809,137.534,131.809,360.595,0,498.175
		c-131.808,137.58-345.522,137.58-477.361,0c-131.854-137.58-131.854-360.641,0-498.175
		C-2282.46-1687.441-2068.746-1687.441-1936.938-1549.861L-1936.938-1549.861z"/>
	<path id="XMLID_23957_" fill="#29285F" d="M-2375.355-997.667c-5.037,5.295-13.248,5.248-18.285,0l-72.418-75.564
		c-5.037-5.266-5.067-13.844,0-19.092l0,0c5.068-5.295,13.286-5.295,18.323-0.031l72.38,75.566
		C-2370.288-1011.509-2370.288-1002.946-2375.355-997.667L-2375.355-997.667z"/>
	<path id="XMLID_23956_" fill="#29285F" d="M-2492.082-875.847c-5.037,5.279-13.256,5.279-18.293,0l-72.425-75.566
		c-5.053-5.248-5.053-13.842,0.015-19.09l0,0c5.068-5.295,13.256-5.264,18.315-0.031l72.403,75.566
		C-2487.014-889.675-2487.014-881.126-2492.082-875.847L-2492.082-875.847z"/>
</g>
<g>
	<g>
		<g>
			<g>
				<g>
					<path opacity="0.46" fill="#E9E9E9" d="M-1461.885-587.448c-56.505,140.608-220.408,212.658-366.104,160.859
						c-145.694-51.802-217.974-207.746-161.514-348.407c56.519-140.608,220.379-212.631,366.096-160.858
						C-1477.719-884.054-1405.396-728.095-1461.885-587.448z"/>
					<path fill="#F1F1F1" d="M-1458.322-586.181c-57.226,142.548-223.371,215.555-371.06,163.069
						c-147.662-52.46-220.965-210.603-163.711-353.15c57.276-142.549,223.414-215.542,371.082-163.057
						C-1474.343-886.846-1401.047-728.729-1458.322-586.181z"/>
					<path fill="#2B2F3F" d="M-1388.417-561.354c72.212-179.802-20.213-379.231-206.526-445.41
						c-186.239-66.206-395.791,25.86-468.011,205.663c-67.777,168.732,9.445,354.677,173.104,431.692l-90.244,224.709l-8.237-2.908
						c-16.91-6.016-36.106,2.418-42.635,18.721l-212.722,529.45c-6.544,16.319,1.929,34.604,18.862,40.602l84.508,30.051
						c16.918,6.015,36.122-2.431,42.658-18.748l212.67-529.462c6.574-16.278-1.921-34.551-18.803-40.59l-8.236-2.936l90.259-224.709
						C-1644.902-301.163-1456.2-392.659-1388.417-561.354z M-1989.502-774.996c56.519-140.608,220.379-212.631,366.096-160.858
						c145.687,51.801,218.011,207.76,161.521,348.406c-56.505,140.608-220.408,212.658-366.104,160.859
						C-1973.682-478.391-2045.962-634.335-1989.502-774.996z"/>
					<path fill="#EE7525" d="M-1441.071-586.091c-60.948,151.703-237.764,229.392-394.893,173.569
						c-157.167-55.86-235.183-224.141-174.271-375.846c60.956-151.702,237.764-229.416,394.9-173.529
						C-1458.13-906.034-1380.174-737.782-1441.071-586.091z"/>
				</g>
			</g>
		</g>
	</g>
	<path fill="#FFFFFF" d="M-1464.963-687.714c0-68.893-25.771-127.574-77.274-176.012c-52.097-48.982-114.479-73.214-187.173-73.214
		c-73.267,0-135.634,24.231-187.716,73.214c-51.518,48.438-77.273,107.119-77.273,176.012c0,68.896,25.755,127.55,77.273,176.014
		c52.083,48.981,114.45,73.201,187.716,73.201c72.694,0,135.076-24.22,187.173-73.201
		C-1490.734-560.164-1464.963-618.818-1464.963-687.714L-1464.963-687.714z"/>
	<path fill="#1C80C4" d="M-1841.003-795.891c-32.062,29.042-48.69,64.575-49.24,106.574c-0.549,41.431,15.479,77.506,46.933,107.093
		c30.935,29.61,68.682,44.688,112.742,45.23c44.655,0.519,83.017-13.461,114.494-42.542c31.461-29.584,46.947-65.118,47.511-106.573
		c0.557-41.986-14.313-78.026-45.226-108.179c-31.491-29.613-69.229-44.665-113.306-45.207
		C-1771.75-840.05-1809.526-825.503-1841.003-795.891L-1841.003-795.891z"/>
	<path fill="#FFFFFF" d="M-1541.681-790.512c0-20.457-7.42-37.68-22.883-52.216c-15.442-14.532-33.799-21.542-54.962-21.542
		c-21.726,0-40.061,7.01-55.51,21.542c-15.426,14.536-22.899,31.759-22.899,52.216c0,19.912,7.473,37.137,22.899,51.671
		c15.449,14.508,33.784,21.518,55.51,21.518c21.163,0,39.52-7.01,54.962-21.518C-1549.102-753.375-1541.681-770.6-1541.681-790.512
		L-1541.681-790.512z"/>
	<g>
		<path fill="#DFDDDF" d="M-1589.845-772.229c0,19.087-16.213,34.604-36.218,34.604c-20.013,0-36.278-15.517-36.278-34.604
			c0-19.15,16.266-34.654,36.278-34.654C-1606.058-806.883-1589.845-791.379-1589.845-772.229z"/>
		<path fill="#FAF8FA" d="M-1597.881-772.229c0,14.768-12.621,26.794-28.211,26.794c-15.553,0-28.189-12.026-28.189-26.794
			c0-14.817,12.636-26.816,28.189-26.816C-1610.502-799.045-1597.881-787.046-1597.881-772.229z"/>
	</g>
</g>
<text transform="matrix(1.0997 0 0 1 -219.4839 -713.6953)" font-family="'Arial-BoldMT'" font-size="53.3671">mplear.ec</text>
<g>
	<g>
		<g>
			<g>
				<path opacity="0.46" fill="#EAEAEA" d="M-233.59-712.501c-7.988,19.183-31.593,28.855-52.725,21.602
					c-21.131-7.249-31.785-28.68-23.797-47.863s31.593-28.855,52.725-21.604C-236.256-753.114-225.6-731.685-233.59-712.501z"/>
				<path fill="#F3F3F3" d="M-233.067-712.323c-8.097,19.445-32.024,29.25-53.443,21.898c-21.419-7.35-32.219-29.072-24.122-48.517
					c8.097-19.444,32.024-29.249,53.444-21.898S-224.972-731.767-233.067-712.323z"/>
				<path fill="#2B2F3F" d="M-222.935-708.845c10.214-24.526-3.409-51.924-30.424-61.195c-27.016-9.271-57.196,3.095-67.408,27.621
					c-9.583,23.013,1.82,48.553,25.582,59.275l-12.763,30.652l-1.194-0.408c-2.452-0.842-5.217,0.291-6.145,2.518l-30.074,72.221
					c-0.927,2.225,0.321,4.736,2.774,5.578l12.259,4.207c2.453,0.842,5.218-0.291,6.145-2.518l30.074-72.223
					c0.927-2.225-0.321-4.734-2.772-5.578l-1.194-0.41l12.763-30.652C-259.679-673.527-232.516-685.831-222.935-708.845z
					 M-310.111-738.763c7.988-19.184,31.593-28.855,52.725-21.604c21.13,7.253,31.787,28.683,23.796,47.866
					c-7.988,19.183-31.593,28.855-52.725,21.602C-307.445-698.148-318.1-719.579-310.111-738.763z"/>
				<path fill="#F39200" d="M-230.577-712.289c-8.616,20.691-34.081,31.126-56.875,23.304
					c-22.795-7.822-34.289-30.939-25.672-51.633c8.617-20.693,34.081-31.127,56.875-23.304
					C-233.453-756.1-221.961-732.983-230.577-712.289z"/>
			</g>
		</g>
	</g>
</g>
<text transform="matrix(1.3019 0 0 1 -309.3745 -699.625)" fill="#FFFFFF" font-family="'Arial-BoldMT'" font-size="101.6777">e</text>
<text transform="matrix(1.1399 0 0 1 -152.2881 -691.6904)" fill="#F39200" font-family="'ArialNarrow-Bold'" font-size="28">bolsa de empleo</text>
<text transform="matrix(1.0997 0 0 1 9.5161 -217.6953)" font-family="'Arial-BoldMT'" font-size="53.3671">benditotrabajo.com</text>
<text transform="matrix(1.1399 0 0 1 348.8789 -185.1895)" fill="#F39200" font-family="'ArialNarrow-Bold'" font-size="28">portal de empleo</text>
<g>
	<g>
		<g>
			<g>
				<g>
					<path opacity="0.46" fill="#EAEAEA" d="M131.021-172.033c-1.672,4.275-6.607,6.432-11.026,4.815s-6.647-6.393-4.977-10.669
						c1.671-4.274,6.607-6.43,11.025-4.814C130.464-181.085,132.691-176.309,131.021-172.033z"/>
					<path fill="#F3F3F3" d="M131.13-171.992c-1.693,4.333-6.697,6.518-11.176,4.881c-4.479-1.639-6.738-6.479-5.045-10.815
						c1.693-4.333,6.697-6.519,11.177-4.88C130.564-181.168,132.823-176.327,131.13-171.992z"/>
					<path fill="#2B2F3F" d="M133.249-171.218c2.137-5.467-0.713-11.573-6.362-13.641c-5.65-2.064-11.961,0.69-14.097,6.157
						c-2.004,5.129,0.38,10.822,5.35,13.211l-2.669,6.833l-0.25-0.092c-0.513-0.188-1.091,0.065-1.284,0.562l-6.29,16.098
						c-0.193,0.495,0.067,1.054,0.58,1.242l2.564,0.938c0.513,0.188,1.091-0.064,1.285-0.561l6.288-16.099
						c0.194-0.495-0.066-1.055-0.579-1.243l-0.25-0.091l2.669-6.831C125.564-163.346,131.246-166.088,133.249-171.218z
						 M115.019-177.887c1.671-4.274,6.607-6.43,11.025-4.814c4.42,1.616,6.647,6.393,4.978,10.668
						c-1.672,4.275-6.607,6.432-11.026,4.815S113.348-173.61,115.019-177.887z"/>
					<path fill="#F39200" d="M131.65-171.985c-1.802,4.611-7.128,6.938-11.894,5.195c-4.768-1.745-7.17-6.896-5.369-11.51
						c1.803-4.613,7.128-6.938,11.896-5.194C131.05-181.75,133.452-176.598,131.65-171.985z"/>
				</g>
			</g>
		</g>
	</g>
	<text transform="matrix(1.3913 0 0 1 115.0459 -168.8008)" fill="#FFFFFF" font-family="'ArialNarrow-Bold'" font-size="25.5674">e</text>
</g>
<g>
	<g>
		<g>
			<g>
				<g>
					<path opacity="0.46" fill="#EAEAEA" d="M438.184,57.83c-2.718,7.217-10.74,10.855-17.924,8.128
						c-7.183-2.728-10.806-10.789-8.09-18.007c2.717-7.214,10.741-10.852,17.923-8.125C437.277,42.554,440.898,50.615,438.184,57.83
						z"/>
					<path fill="#F3F3F3" d="M438.36,57.9c-2.753,7.313-10.887,11-18.167,8.237c-7.282-2.766-10.953-10.936-8.201-18.254
						c2.753-7.313,10.887-11.002,18.169-8.236C437.441,42.413,441.113,50.584,438.36,57.9z"/>
					<path fill="#2B2F3F" d="M441.805,59.207c3.474-9.227-1.158-19.533-10.342-23.022c-9.186-3.483-19.443,1.165-22.915,10.392
						c-3.258,8.657,0.617,18.266,8.696,22.297l-4.339,11.533l-0.406-0.155c-0.834-0.316-1.773,0.11-2.088,0.948l-10.225,27.168
						c-0.314,0.836,0.109,1.779,0.943,2.097l4.168,1.584c0.834,0.316,1.773-0.108,2.089-0.946l10.222-27.17
						c0.316-0.836-0.107-1.78-0.94-2.099l-0.407-0.153L420.6,70.15C429.313,72.493,438.549,67.865,441.805,59.207z M412.17,47.951
						c2.717-7.214,10.741-10.852,17.923-8.125c7.185,2.728,10.806,10.789,8.091,18.004c-2.718,7.217-10.74,10.855-17.924,8.128
						C413.077,63.23,409.454,55.169,412.17,47.951z"/>
					<path fill="#F39200" d="M439.206,57.911c-2.929,7.783-11.587,11.709-19.333,8.769c-7.75-2.945-11.655-11.64-8.729-19.426
						c2.931-7.786,11.587-11.709,19.337-8.767C438.23,41.432,442.135,50.127,439.206,57.911z"/>
				</g>
			</g>
		</g>
	</g>
	<text transform="matrix(1.2903 0 0 1 412.2148 60.3408)" fill="#FFFFFF" font-family="'ArialNarrow-Bold'" font-size="39.717">a</text>
</g>
<g>
	<text transform="matrix(2.0613 0 0 1 256.0215 -100.9639)" fill="#F39200" font-family="'ArialNarrow-Bold'" font-size="53.3301">bendito</text>
</g>
<text transform="matrix(1.1786 0 0 1 258.0156 -59.9795)" font-family="'ArialMT'" font-size="53.3671">trabajo.com</text>
<text transform="matrix(1.0909 0 0 1 413.8789 -36.2148)" fill="#F39200" font-family="'ArialNarrow-Bold'" font-size="21.5601">tu portal de empleo</text>
<g>
	<text transform="matrix(2.0613 0 0 1 1.0215 40.5361)" fill="#F39200" font-family="'ArialNarrow-Bold'" font-size="53.3301">bendito</text>
</g>
<text transform="matrix(1.1786 0 0 1 3.0156 81.5205)" font-family="'ArialMT'" font-size="53.3671">trabajo.com</text>
<text transform="matrix(1.0511 0 0 1 158.877 105.2852)" fill="#F39200" font-family="'ArialNarrow-Bold'" font-size="21.5601">tu portal de empleo</text>
</svg>
